<svg xmlns="http://www.w3.org/2000/svg" width="188.80pt" height="172.80pt" viewBox="0 0 188.80 172.80" role="img" aria-label="cleanfig figure"><style>.cf-text{font-family:"IBM Plex Sans", "Source Sans 3", 'Arial', sans-serif;fill:#191c20;font-weight:400;} .cf-axis{stroke:#656d76;stroke-width:0.55;fill:none;stroke-linecap:square;} .cf-tick{stroke:#707881;stroke-width:0.45;} .cf-label{font-size:8.6px;font-weight:400;} .cf-ticklabel{font-size:7.2px;font-weight:400;fill:#494f57;} .cf-panel{font-size:11.2px;font-weight:700;} .cf-cbarlabel{font-size:7.8px;font-weight:400;} .cf-legendtext{font-size:7.2px;font-weight:400;fill:#494f57;}</style><rect x="0" y="0" width="188.80" height="172.80" fill="#ffffff" /><g transform="translate(-28.00,-24.00)"><g data-panel="0-0"><line class="cf-axis" x1="70.00" y1="160.80" x2="206.80" y2="160.80" /><line class="cf-axis" x1="66.00" y1="46.00" x2="66.00" y2="156.80" /><line class="cf-tick" x1="72.40" y1="160.80" x2="72.40" y2="165.30" /><text class="cf-text cf-ticklabel" text-anchor="middle" x="72.40" y="174.30">0</text><line class="cf-tick" x1="136.40" y1="160.80" x2="136.40" y2="165.30" /><text class="cf-text cf-ticklabel" text-anchor="middle" x="136.40" y="174.30">5</text><line class="cf-tick" x1="200.40" y1="160.80" x2="200.40" y2="165.30" /><text class="cf-text cf-ticklabel" text-anchor="middle" x="200.40" y="174.30">10</text><line class="cf-tick" x1="61.50" y1="155.59" x2="66.00" y2="155.59" /><text class="cf-text cf-ticklabel" text-anchor="end" x="58.50" y="158.39">-1</text><line class="cf-tick" x1="61.50" y1="103.40" x2="66.00" y2="103.40" /><text class="cf-text cf-ticklabel" text-anchor="end" x="58.50" y="106.20">0</text><line class="cf-tick" x1="61.50" y1="51.21" x2="66.00" y2="51.21" /><text class="cf-text cf-ticklabel" text-anchor="end" x="58.50" y="54.01">1</text><circle cx="72.40" cy="103.40" r="2.10" fill="#3b668c" stroke="none" stroke-width="0.00" opacity="0.800" /><circle cx="85.26" cy="59.35" r="2.10" fill="#3b668c" stroke="none" stroke-width="0.00" opacity="0.800" /><circle cx="98.13" cy="56.17" r="2.10" fill="#3b668c" stroke="none" stroke-width="0.00" opacity="0.800" /><circle cx="110.99" cy="96.81" r="2.10" fill="#3b668c" stroke="none" stroke-width="0.00" opacity="0.800" /><circle cx="123.86" cy="143.57" r="2.10" fill="#3b668c" stroke="none" stroke-width="0.00" opacity="0.800" /><circle cx="136.72" cy="153.05" r="2.10" fill="#3b668c" stroke="none" stroke-width="0.00" opacity="0.800" /><circle cx="149.59" cy="116.46" r="2.10" fill="#3b668c" stroke="none" stroke-width="0.00" opacity="0.800" /><circle cx="162.45" cy="67.75" r="2.10" fill="#3b668c" stroke="none" stroke-width="0.00" opacity="0.800" /><circle cx="175.31" cy="52.12" r="2.10" fill="#3b668c" stroke="none" stroke-width="0.00" opacity="0.800" /><circle cx="188.18" cy="84.06" r="2.10" fill="#3b668c" stroke="none" stroke-width="0.00" opacity="0.800" /><path d="M 72.40 103.40 L 73.04 100.78 L 73.69 98.16 L 74.33 95.56 L 74.97 92.98 L 75.62 90.42 L 76.26 87.90 L 76.90 85.42 L 77.55 82.98 L 78.19 80.59 L 78.83 78.27 L 79.48 76.00 L 80.12 73.80 L 80.76 71.68 L 81.41 69.64 L 82.05 67.68 L 82.69 65.82 L 83.33 64.05 L 83.98 62.37 L 84.62 60.81 L 85.26 59.35 L 85.91 58.00 L 86.55 56.76 L 87.19 55.64 L 87.84 54.65 L 88.48 53.77 L 89.12 53.03 L 89.77 52.40 L 90.41 51.91 L 91.05 51.55 L 91.70 51.32 L 92.34 51.22 L 92.98 51.25 L 93.63 51.41 L 94.27 51.71 L 94.91 52.13 L 95.56 52.69 L 96.20 53.37 L 96.84 54.18 L 97.49 55.11 L 98.13 56.17 L 98.77 57.34 L 99.42 58.63 L 100.06 60.04 L 100.70 61.55 L 101.34 63.17 L 101.99 64.89 L 102.63 66.71 L 103.27 68.62 L 103.92 70.61 L 104.56 72.70 L 105.20 74.85 L 105.85 77.08 L 106.49 79.38 L 107.13 81.74 L 107.78 84.15 L 108.42 86.61 L 109.06 89.11 L 109.71 91.65 L 110.35 94.22 L 110.99 96.81 L 111.64 99.42 L 112.28 102.04 L 112.92 104.66 L 113.57 107.28 L 114.21 109.89 L 114.85 112.48 L 115.50 115.05 L 116.14 117.60 L 116.78 120.10 L 117.43 122.56 L 118.07 124.98 L 118.71 127.34 L 119.35 129.63 L 120.00 131.87 L 120.64 134.03 L 121.28 136.11 L 121.93 138.11 L 122.57 140.03 L 123.21 141.85 L 123.86 143.57 L 124.50 145.19 L 125.14 146.71 L 125.79 148.12 L 126.43 149.41 L 127.07 150.59 L 127.72 151.65 L 128.36 152.59 L 129.00 153.40 L 129.65 154.09 L 130.29 154.65 L 130.93 155.08 L 131.58 155.38 L 132.22 155.55 L 132.86 155.58 L 133.51 155.49 L 134.15 155.26 L 134.79 154.90 L 135.44 154.41 L 136.08 153.80 L 136.72 153.05 L 137.36 152.18 L 138.01 151.19 L 138.65 150.08 L 139.29 148.85 L 139.94 147.50 L 140.58 146.05 L 141.22 144.48 L 141.87 142.81 L 142.51 141.05 L 143.15 139.18 L 143.80 137.23 L 144.44 135.19 L 145.08 133.07 L 145.73 130.88 L 146.37 128.61 L 147.01 126.29 L 147.66 123.90 L 148.30 121.47 L 148.94 118.99 L 149.59 116.46 L 150.23 113.91 L 150.87 111.33 L 151.52 108.73 L 152.16 106.11 L 152.80 103.49 L 153.45 100.87 L 154.09 98.26 L 154.73 95.65 L 155.37 93.07 L 156.02 90.51 L 156.66 87.99 L 157.30 85.51 L 157.95 83.07 L 158.59 80.68 L 159.23 78.35 L 159.88 76.08 L 160.52 73.88 L 161.16 71.76 L 161.81 69.71 L 162.45 67.75 L 163.09 65.88 L 163.74 64.11 L 164.38 62.43 L 165.02 60.86 L 165.67 59.40 L 166.31 58.04 L 166.95 56.80 L 167.60 55.68 L 168.24 54.68 L 168.88 53.80 L 169.53 53.05 L 170.17 52.42 L 170.81 51.93 L 171.46 51.56 L 172.10 51.32 L 172.74 51.22 L 173.38 51.25 L 174.03 51.41 L 174.67 51.70 L 175.31 52.12 L 175.96 52.67 L 176.60 53.34 L 177.24 54.15 L 177.89 55.08 L 178.53 56.13 L 179.17 57.30 L 179.82 58.59 L 180.46 59.98 L 181.10 61.49 L 181.75 63.11 L 182.39 64.83 L 183.03 66.64 L 183.68 68.55 L 184.32 70.54 L 184.96 72.62 L 185.61 74.78 L 186.25 77.00 L 186.89 79.30 L 187.54 81.65 L 188.18 84.06 L 188.82 86.52 L 189.47 89.03 L 190.11 91.56 L 190.75 94.13 L 191.39 96.72 L 192.04 99.33 L 192.68 101.95 L 193.32 104.57 L 193.97 107.19 L 194.61 109.80 L 195.25 112.39 L 195.90 114.96 L 196.54 117.51 L 197.18 120.01 L 197.83 122.48 L 198.47 124.89 L 199.11 127.25 L 199.76 129.55 L 200.40 131.79" fill="none" stroke="#21252a" stroke-width="0.80" opacity="1.000" /><text class="cf-text cf-label" text-anchor="middle" x="136.40" y="187.30">Time t [ω<tspan baseline-shift="super" font-size="70%">-1</tspan>]</text><text class="cf-text cf-label" text-anchor="middle" transform="translate(39.00,103.40) rotate(-90)">∂<tspan baseline-shift="sub" font-size="70%">t</tspan> u</text><line x1="66.00" y1="200.80" x2="76.00" y2="200.80" stroke="#21252a" stroke-width="0.95" /><text class="cf-text cf-legendtext" x="79.00" y="203.40">u(t) = sin(ω t)</text><circle cx="71.00" cy="210.80" r="2.6" fill="#3b668c" /><text class="cf-text cf-legendtext" x="79.00" y="213.40">u<tspan baseline-shift="sub" font-size="70%">i</tspan></text></g></g></svg>