<svg xmlns="http://www.w3.org/2000/svg" width="221.60pt" height="205.60pt" viewBox="0 0 221.60 205.60" role="img" aria-label="cleanfig figure"><style>.cf-text{font-family:"IBM Plex Sans", "Source Sans 3", 'Arial', sans-serif;fill:#191c20;font-weight:400;} .cf-axis{stroke:#656d76;stroke-width:0.55;fill:none;stroke-linecap:square;} .cf-tick{stroke:#707881;stroke-width:0.45;} .cf-label{font-size:8.6px;font-weight:400;} .cf-ticklabel{font-size:7.2px;font-weight:400;fill:#494f57;} .cf-panel{font-size:11.2px;font-weight:700;} .cf-cbarlabel{font-size:7.8px;font-weight:400;} .cf-legendtext{font-size:7.2px;font-weight:400;fill:#494f57;}</style><rect x="0" y="0" width="221.60" height="205.60" fill="#ffffff" /><g transform="translate(-141.20,-22.00)"><g data-panel="0-0"><line class="cf-axis" x1="183.20" y1="191.60" x2="352.80" y2="191.60" /><line class="cf-axis" x1="179.20" y1="44.00" x2="179.20" y2="187.60" /><line x1="352.80" y1="44.00" x2="352.80" y2="187.60" stroke="#b2382a" stroke-width="0.7" /><line class="cf-tick" x1="181.91" y1="191.60" x2="181.91" y2="196.10" /><text class="cf-text cf-ticklabel" text-anchor="middle" x="181.91" y="205.10">0</text><line class="cf-tick" x1="249.18" y1="191.60" x2="249.18" y2="196.10" /><text class="cf-text cf-ticklabel" text-anchor="middle" x="249.18" y="205.10">10</text><line class="cf-tick" x1="316.45" y1="191.60" x2="316.45" y2="196.10" /><text class="cf-text cf-ticklabel" text-anchor="middle" x="316.45" y="205.10">20</text><line class="cf-tick" x1="174.70" y1="185.21" x2="179.20" y2="185.21" /><text class="cf-text cf-ticklabel" text-anchor="end" x="171.70" y="188.01">10<tspan baseline-shift="super" font-size="70%">2</tspan></text><line class="cf-tick" x1="174.70" y1="160.95" x2="179.20" y2="160.95" /><text class="cf-text cf-ticklabel" text-anchor="end" x="171.70" y="163.75">10<tspan baseline-shift="super" font-size="70%">3</tspan></text><line class="cf-tick" x1="174.70" y1="136.68" x2="179.20" y2="136.68" /><text class="cf-text cf-ticklabel" text-anchor="end" x="171.70" y="139.48">10<tspan baseline-shift="super" font-size="70%">4</tspan></text><line class="cf-tick" x1="174.70" y1="112.42" x2="179.20" y2="112.42" /><text class="cf-text cf-ticklabel" text-anchor="end" x="171.70" y="115.22">10<tspan baseline-shift="super" font-size="70%">5</tspan></text><line class="cf-tick" x1="174.70" y1="88.15" x2="179.20" y2="88.15" /><text class="cf-text cf-ticklabel" text-anchor="end" x="171.70" y="90.95">10<tspan baseline-shift="super" font-size="70%">6</tspan></text><line class="cf-tick" x1="174.70" y1="63.89" x2="179.20" y2="63.89" /><text class="cf-text cf-ticklabel" text-anchor="end" x="171.70" y="66.69">10<tspan baseline-shift="super" font-size="70%">7</tspan></text><line x1="352.80" y1="191.60" x2="357.30" y2="191.60" stroke="#b2382a" stroke-width="0.45" /><text text-anchor="start" x="360.30" y="194.40" font-family="&quot;IBM Plex Sans&quot;, &quot;Source Sans 3&quot;, Arial, sans-serif" font-size="7.2px" fill="#b2382a">0</text><line x1="352.80" y1="144.41" x2="357.30" y2="144.41" stroke="#b2382a" stroke-width="0.45" /><text text-anchor="start" x="360.30" y="147.21" font-family="&quot;IBM Plex Sans&quot;, &quot;Source Sans 3&quot;, Arial, sans-serif" font-size="7.2px" fill="#b2382a">0.5</text><line x1="352.80" y1="97.23" x2="357.30" y2="97.23" stroke="#b2382a" stroke-width="0.45" /><text text-anchor="start" x="360.30" y="100.03" font-family="&quot;IBM Plex Sans&quot;, &quot;Source Sans 3&quot;, Arial, sans-serif" font-size="7.2px" fill="#b2382a">1</text><line x1="352.80" y1="50.04" x2="357.30" y2="50.04" stroke="#b2382a" stroke-width="0.45" /><text text-anchor="start" x="360.30" y="52.84" font-family="&quot;IBM Plex Sans&quot;, &quot;Source Sans 3&quot;, Arial, sans-serif" font-size="7.2px" fill="#b2382a">1.5</text><circle cx="188.64" cy="86.23" r="1.80" fill="#3b668c" stroke="none" stroke-width="0.00" opacity="0.800" /><circle cx="195.37" cy="90.50" r="1.80" fill="#3b668c" stroke="none" stroke-width="0.00" opacity="0.800" /><circle cx="202.09" cy="65.00" r="1.80" fill="#3b668c" stroke="none" stroke-width="0.00" opacity="0.800" /><circle cx="208.82" cy="61.12" r="1.80" fill="#3b668c" stroke="none" stroke-width="0.00" opacity="0.800" /><circle cx="215.55" cy="98.63" r="1.80" fill="#3b668c" stroke="none" stroke-width="0.00" opacity="0.800" /><circle cx="222.27" cy="70.00" r="1.80" fill="#3b668c" stroke="none" stroke-width="0.00" opacity="0.800" /><circle cx="229.00" cy="52.31" r="1.80" fill="#3b668c" stroke="none" stroke-width="0.00" opacity="0.800" /><circle cx="235.73" cy="55.58" r="1.80" fill="#3b668c" stroke="none" stroke-width="0.00" opacity="0.800" /><circle cx="242.46" cy="78.08" r="1.80" fill="#3b668c" stroke="none" stroke-width="0.00" opacity="0.800" /><circle cx="249.18" cy="163.30" r="1.80" fill="#3b668c" stroke="none" stroke-width="0.00" opacity="0.800" /><circle cx="255.91" cy="108.14" r="1.80" fill="#3b668c" stroke="none" stroke-width="0.00" opacity="0.800" /><circle cx="262.64" cy="133.92" r="1.80" fill="#3b668c" stroke="none" stroke-width="0.00" opacity="0.800" /><circle cx="269.36" cy="93.53" r="1.80" fill="#3b668c" stroke="none" stroke-width="0.00" opacity="0.800" /><circle cx="276.09" cy="78.67" r="1.80" fill="#3b668c" stroke="none" stroke-width="0.00" opacity="0.800" /><circle cx="282.82" cy="129.38" r="1.80" fill="#3b668c" stroke="none" stroke-width="0.00" opacity="0.800" /><circle cx="289.54" cy="100.49" r="1.80" fill="#3b668c" stroke="none" stroke-width="0.00" opacity="0.800" /><circle cx="296.27" cy="112.42" r="1.80" fill="#3b668c" stroke="none" stroke-width="0.00" opacity="0.800" /><circle cx="303.00" cy="98.63" r="1.80" fill="#3b668c" stroke="none" stroke-width="0.00" opacity="0.800" /><circle cx="309.73" cy="94.84" r="1.80" fill="#3b668c" stroke="none" stroke-width="0.00" opacity="0.800" /><circle cx="316.45" cy="80.33" r="1.80" fill="#3b668c" stroke="none" stroke-width="0.00" opacity="0.800" /><circle cx="323.18" cy="60.34" r="1.80" fill="#3b668c" stroke="none" stroke-width="0.00" opacity="0.800" /><circle cx="329.91" cy="127.90" r="1.80" fill="#3b668c" stroke="none" stroke-width="0.00" opacity="0.800" /><circle cx="336.63" cy="80.85" r="1.80" fill="#3b668c" stroke="none" stroke-width="0.00" opacity="0.800" /><circle cx="343.36" cy="124.10" r="1.80" fill="#3b668c" stroke="none" stroke-width="0.00" opacity="0.800" /><circle cx="188.64" cy="150.46" r="1.80" fill="#b2382a" stroke="none" stroke-width="0.00" opacity="0.800" /><circle cx="195.37" cy="170.63" r="1.80" fill="#b2382a" stroke="none" stroke-width="0.00" opacity="0.800" /><circle cx="202.09" cy="172.73" r="1.80" fill="#b2382a" stroke="none" stroke-width="0.00" opacity="0.800" /><circle cx="208.82" cy="167.25" r="1.80" fill="#b2382a" stroke="none" stroke-width="0.00" opacity="0.800" /><circle cx="215.55" cy="152.55" r="1.80" fill="#b2382a" stroke="none" stroke-width="0.00" opacity="0.800" /><circle cx="222.27" cy="164.64" r="1.80" fill="#b2382a" stroke="none" stroke-width="0.00" opacity="0.800" /><circle cx="229.00" cy="164.41" r="1.80" fill="#b2382a" stroke="none" stroke-width="0.00" opacity="0.800" /><circle cx="235.73" cy="164.41" r="1.80" fill="#b2382a" stroke="none" stroke-width="0.00" opacity="0.800" /><circle cx="242.46" cy="159.04" r="1.80" fill="#b2382a" stroke="none" stroke-width="0.00" opacity="0.800" /><circle cx="249.18" cy="149.66" r="1.80" fill="#b2382a" stroke="none" stroke-width="0.00" opacity="0.800" /><circle cx="255.91" cy="136.55" r="1.80" fill="#b2382a" stroke="none" stroke-width="0.00" opacity="0.800" /><circle cx="262.64" cy="168.97" r="1.80" fill="#b2382a" stroke="none" stroke-width="0.00" opacity="0.800" /><circle cx="269.36" cy="157.15" r="1.80" fill="#b2382a" stroke="none" stroke-width="0.00" opacity="0.800" /><circle cx="276.09" cy="157.52" r="1.80" fill="#b2382a" stroke="none" stroke-width="0.00" opacity="0.800" /><circle cx="282.82" cy="97.23" r="1.80" fill="#b2382a" stroke="none" stroke-width="0.00" opacity="0.800" /><circle cx="289.54" cy="142.53" r="1.80" fill="#b2382a" stroke="none" stroke-width="0.00" opacity="0.800" /><circle cx="296.27" cy="141.27" r="1.80" fill="#b2382a" stroke="none" stroke-width="0.00" opacity="0.800" /><circle cx="303.00" cy="158.57" r="1.80" fill="#b2382a" stroke="none" stroke-width="0.00" opacity="0.800" /><circle cx="309.73" cy="160.49" r="1.80" fill="#b2382a" stroke="none" stroke-width="0.00" opacity="0.800" /><circle cx="316.45" cy="154.90" r="1.80" fill="#b2382a" stroke="none" stroke-width="0.00" opacity="0.800" /><circle cx="323.18" cy="175.42" r="1.80" fill="#b2382a" stroke="none" stroke-width="0.00" opacity="0.800" /><circle cx="329.91" cy="138.93" r="1.80" fill="#b2382a" stroke="none" stroke-width="0.00" opacity="0.800" /><circle cx="336.63" cy="180.92" r="1.80" fill="#b2382a" stroke="none" stroke-width="0.00" opacity="0.800" /><circle cx="343.36" cy="165.57" r="1.80" fill="#b2382a" stroke="none" stroke-width="0.00" opacity="0.800" /><path d="M 188.64 89.74 L 188.64 83.20" fill="none" stroke="#21252a" stroke-width="0.65" opacity="0.350" /><path d="M 187.09 89.74 L 190.19 89.74" fill="none" stroke="#21252a" stroke-width="0.65" opacity="0.350" /><path d="M 187.09 83.20 L 190.19 83.20" fill="none" stroke="#21252a" stroke-width="0.65" opacity="0.350" /><path d="M 195.37 97.81 L 195.37 86.23" fill="none" stroke="#21252a" stroke-width="0.65" opacity="0.350" /><path d="M 193.82 97.81 L 196.91 97.81" fill="none" stroke="#21252a" stroke-width="0.65" opacity="0.350" /><path d="M 193.82 86.23 L 196.91 86.23" fill="none" stroke="#21252a" stroke-width="0.65" opacity="0.350" /><path d="M 202.09 69.10 L 202.09 61.12" fill="none" stroke="#21252a" stroke-width="0.65" opacity="0.350" /><path d="M 200.55 69.10 L 203.64 69.10" fill="none" stroke="#21252a" stroke-width="0.65" opacity="0.350" /><path d="M 200.55 61.12 L 203.64 61.12" fill="none" stroke="#21252a" stroke-width="0.65" opacity="0.350" /><path d="M 208.82 77.30 L 208.82 45.00" fill="none" stroke="#21252a" stroke-width="0.65" opacity="0.350" /><path d="M 207.27 77.30 L 210.37 77.30" fill="none" stroke="#21252a" stroke-width="0.65" opacity="0.350" /><path d="M 207.27 45.00 L 210.37 45.00" fill="none" stroke="#21252a" stroke-width="0.65" opacity="0.350" /><path d="M 215.55 102.76 L 215.55 94.45" fill="none" stroke="#21252a" stroke-width="0.65" opacity="0.350" /><path d="M 214.00 102.76 L 217.09 102.76" fill="none" stroke="#21252a" stroke-width="0.65" opacity="0.350" /><path d="M 214.00 94.45 L 217.09 94.45" fill="none" stroke="#21252a" stroke-width="0.65" opacity="0.350" /><path d="M 222.27 77.68 L 222.27 61.97" fill="none" stroke="#21252a" stroke-width="0.65" opacity="0.350" /><path d="M 220.73 77.68 L 223.82 77.68" fill="none" stroke="#21252a" stroke-width="0.65" opacity="0.350" /><path d="M 220.73 61.97 L 223.82 61.97" fill="none" stroke="#21252a" stroke-width="0.65" opacity="0.350" /><path d="M 229.00 56.07 L 229.00 50.18" fill="none" stroke="#21252a" stroke-width="0.65" opacity="0.350" /><path d="M 227.45 56.07 L 230.55 56.07" fill="none" stroke="#21252a" stroke-width="0.65" opacity="0.350" /><path d="M 227.45 50.18 L 230.55 50.18" fill="none" stroke="#21252a" stroke-width="0.65" opacity="0.350" /><path d="M 235.73 58.11 L 235.73 55.58" fill="none" stroke="#21252a" stroke-width="0.65" opacity="0.350" /><path d="M 234.18 58.11 L 237.28 58.11" fill="none" stroke="#21252a" stroke-width="0.65" opacity="0.350" /><path d="M 234.18 55.58 L 237.28 55.58" fill="none" stroke="#21252a" stroke-width="0.65" opacity="0.350" /><path d="M 242.46 81.96 L 242.46 73.81" fill="none" stroke="#21252a" stroke-width="0.65" opacity="0.350" /><path d="M 240.91 81.96 L 244.00 81.96" fill="none" stroke="#21252a" stroke-width="0.65" opacity="0.350" /><path d="M 240.91 73.81 L 244.00 73.81" fill="none" stroke="#21252a" stroke-width="0.65" opacity="0.350" /><path d="M 249.18 190.60 L 249.18 150.88" fill="none" stroke="#21252a" stroke-width="0.65" opacity="0.350" /><path d="M 247.63 190.60 L 250.73 190.60" fill="none" stroke="#21252a" stroke-width="0.65" opacity="0.350" /><path d="M 247.63 150.88 L 250.73 150.88" fill="none" stroke="#21252a" stroke-width="0.65" opacity="0.350" /><path d="M 255.91 112.74 L 255.91 103.64" fill="none" stroke="#21252a" stroke-width="0.65" opacity="0.350" /><path d="M 254.36 112.74 L 257.46 112.74" fill="none" stroke="#21252a" stroke-width="0.65" opacity="0.350" /><path d="M 254.36 103.64 L 257.46 103.64" fill="none" stroke="#21252a" stroke-width="0.65" opacity="0.350" /><path d="M 262.64 145.33 L 262.64 125.83" fill="none" stroke="#21252a" stroke-width="0.65" opacity="0.350" /><path d="M 261.09 145.33 L 264.18 145.33" fill="none" stroke="#21252a" stroke-width="0.65" opacity="0.350" /><path d="M 261.09 125.83 L 264.18 125.83" fill="none" stroke="#21252a" stroke-width="0.65" opacity="0.350" /><path d="M 269.36 96.57 L 269.36 90.50" fill="none" stroke="#21252a" stroke-width="0.65" opacity="0.350" /><path d="M 267.82 96.57 L 270.91 96.57" fill="none" stroke="#21252a" stroke-width="0.65" opacity="0.350" /><path d="M 267.82 90.50 L 270.91 90.50" fill="none" stroke="#21252a" stroke-width="0.65" opacity="0.350" /><path d="M 276.09 85.97 L 276.09 69.01" fill="none" stroke="#21252a" stroke-width="0.65" opacity="0.350" /><path d="M 274.54 85.97 L 277.64 85.97" fill="none" stroke="#21252a" stroke-width="0.65" opacity="0.350" /><path d="M 274.54 69.01 L 277.64 69.01" fill="none" stroke="#21252a" stroke-width="0.65" opacity="0.350" /><path d="M 282.82 136.68 L 282.82 117.80" fill="none" stroke="#21252a" stroke-width="0.65" opacity="0.350" /><path d="M 281.27 136.68 L 284.37 136.68" fill="none" stroke="#21252a" stroke-width="0.65" opacity="0.350" /><path d="M 281.27 117.80 L 284.37 117.80" fill="none" stroke="#21252a" stroke-width="0.65" opacity="0.350" /><path d="M 289.54 104.11 L 289.54 96.57" fill="none" stroke="#21252a" stroke-width="0.65" opacity="0.350" /><path d="M 288.00 104.11 L 291.09 104.11" fill="none" stroke="#21252a" stroke-width="0.65" opacity="0.350" /><path d="M 288.00 96.57 L 291.09 96.57" fill="none" stroke="#21252a" stroke-width="0.65" opacity="0.350" /><path d="M 296.27 118.53 L 296.27 107.46" fill="none" stroke="#21252a" stroke-width="0.65" opacity="0.350" /><path d="M 294.72 118.53 L 297.82 118.53" fill="none" stroke="#21252a" stroke-width="0.65" opacity="0.350" /><path d="M 294.72 107.46 L 297.82 107.46" fill="none" stroke="#21252a" stroke-width="0.65" opacity="0.350" /><path d="M 303.00 102.76 L 303.00 94.26" fill="none" stroke="#21252a" stroke-width="0.65" opacity="0.350" /><path d="M 301.45 102.76 L 304.55 102.76" fill="none" stroke="#21252a" stroke-width="0.65" opacity="0.350" /><path d="M 301.45 94.26 L 304.55 94.26" fill="none" stroke="#21252a" stroke-width="0.65" opacity="0.350" /><path d="M 309.73 99.21 L 309.73 90.50" fill="none" stroke="#21252a" stroke-width="0.65" opacity="0.350" /><path d="M 308.18 99.21 L 311.27 99.21" fill="none" stroke="#21252a" stroke-width="0.65" opacity="0.350" /><path d="M 308.18 90.50 L 311.27 90.50" fill="none" stroke="#21252a" stroke-width="0.65" opacity="0.350" /><path d="M 316.45 84.61 L 316.45 76.23" fill="none" stroke="#21252a" stroke-width="0.65" opacity="0.350" /><path d="M 314.91 84.61 L 318.00 84.61" fill="none" stroke="#21252a" stroke-width="0.65" opacity="0.350" /><path d="M 314.91 76.23 L 318.00 76.23" fill="none" stroke="#21252a" stroke-width="0.65" opacity="0.350" /><path d="M 323.18 63.89 L 323.18 56.58" fill="none" stroke="#21252a" stroke-width="0.65" opacity="0.350" /><path d="M 321.63 63.89 L 324.73 63.89" fill="none" stroke="#21252a" stroke-width="0.65" opacity="0.350" /><path d="M 321.63 56.58 L 324.73 56.58" fill="none" stroke="#21252a" stroke-width="0.65" opacity="0.350" /><path d="M 329.91 130.49 L 329.91 125.10" fill="none" stroke="#21252a" stroke-width="0.65" opacity="0.350" /><path d="M 328.36 130.49 L 331.45 130.49" fill="none" stroke="#21252a" stroke-width="0.65" opacity="0.350" /><path d="M 328.36 125.10 L 331.45 125.10" fill="none" stroke="#21252a" stroke-width="0.65" opacity="0.350" /><path d="M 336.63 87.15 L 336.63 71.19" fill="none" stroke="#21252a" stroke-width="0.65" opacity="0.350" /><path d="M 335.09 87.15 L 338.18 87.15" fill="none" stroke="#21252a" stroke-width="0.65" opacity="0.350" /><path d="M 335.09 71.19 L 338.18 71.19" fill="none" stroke="#21252a" stroke-width="0.65" opacity="0.350" /><path d="M 343.36 148.37 L 343.36 99.83" fill="none" stroke="#21252a" stroke-width="0.65" opacity="0.350" /><path d="M 341.81 148.37 L 344.91 148.37" fill="none" stroke="#21252a" stroke-width="0.65" opacity="0.350" /><path d="M 341.81 99.83 L 344.91 99.83" fill="none" stroke="#21252a" stroke-width="0.65" opacity="0.350" /><path d="M 188.64 154.24 L 188.64 148.52" fill="none" stroke="#b2382a" stroke-width="0.65" opacity="0.350" /><path d="M 187.09 154.24 L 190.19 154.24" fill="none" stroke="#b2382a" stroke-width="0.65" opacity="0.350" /><path d="M 187.09 148.52 L 190.19 148.52" fill="none" stroke="#b2382a" stroke-width="0.65" opacity="0.350" /><path d="M 195.37 176.85 L 195.37 155.65" fill="none" stroke="#b2382a" stroke-width="0.65" opacity="0.350" /><path d="M 193.82 176.85 L 196.91 176.85" fill="none" stroke="#b2382a" stroke-width="0.65" opacity="0.350" /><path d="M 193.82 155.65 L 196.91 155.65" fill="none" stroke="#b2382a" stroke-width="0.65" opacity="0.350" /><path d="M 202.09 180.40 L 202.09 166.43" fill="none" stroke="#b2382a" stroke-width="0.65" opacity="0.350" /><path d="M 200.55 180.40 L 203.64 180.40" fill="none" stroke="#b2382a" stroke-width="0.65" opacity="0.350" /><path d="M 200.55 166.43 L 203.64 166.43" fill="none" stroke="#b2382a" stroke-width="0.65" opacity="0.350" /><path d="M 208.82 168.75 L 208.82 165.67" fill="none" stroke="#b2382a" stroke-width="0.65" opacity="0.350" /><path d="M 207.27 168.75 L 210.37 168.75" fill="none" stroke="#b2382a" stroke-width="0.65" opacity="0.350" /><path d="M 207.27 165.67 L 210.37 165.67" fill="none" stroke="#b2382a" stroke-width="0.65" opacity="0.350" /><path d="M 215.55 157.00 L 215.55 147.78" fill="none" stroke="#b2382a" stroke-width="0.65" opacity="0.350" /><path d="M 214.00 157.00 L 217.09 157.00" fill="none" stroke="#b2382a" stroke-width="0.65" opacity="0.350" /><path d="M 214.00 147.78 L 217.09 147.78" fill="none" stroke="#b2382a" stroke-width="0.65" opacity="0.350" /><path d="M 222.27 169.29 L 222.27 158.05" fill="none" stroke="#b2382a" stroke-width="0.65" opacity="0.350" /><path d="M 220.73 169.29 L 223.82 169.29" fill="none" stroke="#b2382a" stroke-width="0.65" opacity="0.350" /><path d="M 220.73 158.05 L 223.82 158.05" fill="none" stroke="#b2382a" stroke-width="0.65" opacity="0.350" /><path d="M 229.00 169.58 L 229.00 110.10" fill="none" stroke="#b2382a" stroke-width="0.65" opacity="0.350" /><path d="M 227.45 169.58 L 230.55 169.58" fill="none" stroke="#b2382a" stroke-width="0.65" opacity="0.350" /><path d="M 227.45 110.10 L 230.55 110.10" fill="none" stroke="#b2382a" stroke-width="0.65" opacity="0.350" /><path d="M 235.73 169.58 L 235.73 127.56" fill="none" stroke="#b2382a" stroke-width="0.65" opacity="0.350" /><path d="M 234.18 169.58 L 237.28 169.58" fill="none" stroke="#b2382a" stroke-width="0.65" opacity="0.350" /><path d="M 234.18 127.56 L 237.28 127.56" fill="none" stroke="#b2382a" stroke-width="0.65" opacity="0.350" /><path d="M 242.46 162.84 L 242.46 146.77" fill="none" stroke="#b2382a" stroke-width="0.65" opacity="0.350" /><path d="M 240.91 162.84 L 244.00 162.84" fill="none" stroke="#b2382a" stroke-width="0.65" opacity="0.350" /><path d="M 240.91 146.77 L 244.00 146.77" fill="none" stroke="#b2382a" stroke-width="0.65" opacity="0.350" /><path d="M 249.18 174.44 L 249.18 110.71" fill="none" stroke="#b2382a" stroke-width="0.65" opacity="0.350" /><path d="M 247.63 174.44 L 250.73 174.44" fill="none" stroke="#b2382a" stroke-width="0.65" opacity="0.350" /><path d="M 247.63 110.71 L 250.73 110.71" fill="none" stroke="#b2382a" stroke-width="0.65" opacity="0.350" /><path d="M 255.91 140.69 L 255.91 130.05" fill="none" stroke="#b2382a" stroke-width="0.65" opacity="0.350" /><path d="M 254.36 140.69 L 257.46 140.69" fill="none" stroke="#b2382a" stroke-width="0.65" opacity="0.350" /><path d="M 254.36 130.05 L 257.46 130.05" fill="none" stroke="#b2382a" stroke-width="0.65" opacity="0.350" /><path d="M 262.64 168.01 L 262.64 172.73" fill="none" stroke="#b2382a" stroke-width="0.65" opacity="0.350" /><path d="M 261.09 168.01 L 264.18 168.01" fill="none" stroke="#b2382a" stroke-width="0.65" opacity="0.350" /><path d="M 261.09 172.73 L 264.18 172.73" fill="none" stroke="#b2382a" stroke-width="0.65" opacity="0.350" /><path d="M 269.36 164.57 L 269.36 146.08" fill="none" stroke="#b2382a" stroke-width="0.65" opacity="0.350" /><path d="M 267.82 164.57 L 270.91 164.57" fill="none" stroke="#b2382a" stroke-width="0.65" opacity="0.350" /><path d="M 267.82 146.08 L 270.91 146.08" fill="none" stroke="#b2382a" stroke-width="0.65" opacity="0.350" /><path d="M 276.09 166.28 L 276.09 146.04" fill="none" stroke="#b2382a" stroke-width="0.65" opacity="0.350" /><path d="M 274.54 166.28 L 277.64 166.28" fill="none" stroke="#b2382a" stroke-width="0.65" opacity="0.350" /><path d="M 274.54 146.04 L 277.64 146.04" fill="none" stroke="#b2382a" stroke-width="0.65" opacity="0.350" /><path d="M 282.82 149.90 L 282.82 63.25" fill="none" stroke="#b2382a" stroke-width="0.65" opacity="0.350" /><path d="M 281.27 149.90 L 284.37 149.90" fill="none" stroke="#b2382a" stroke-width="0.65" opacity="0.350" /><path d="M 281.27 63.25 L 284.37 63.25" fill="none" stroke="#b2382a" stroke-width="0.65" opacity="0.350" /><path d="M 289.54 148.04 L 289.54 136.55" fill="none" stroke="#b2382a" stroke-width="0.65" opacity="0.350" /><path d="M 288.00 148.04 L 291.09 148.04" fill="none" stroke="#b2382a" stroke-width="0.65" opacity="0.350" /><path d="M 288.00 136.55 L 291.09 136.55" fill="none" stroke="#b2382a" stroke-width="0.65" opacity="0.350" /><path d="M 296.27 150.31 L 296.27 117.45" fill="none" stroke="#b2382a" stroke-width="0.65" opacity="0.350" /><path d="M 294.72 150.31 L 297.82 150.31" fill="none" stroke="#b2382a" stroke-width="0.65" opacity="0.350" /><path d="M 294.72 117.45 L 297.82 117.45" fill="none" stroke="#b2382a" stroke-width="0.65" opacity="0.350" /><path d="M 303.00 163.29 L 303.00 154.32" fill="none" stroke="#b2382a" stroke-width="0.65" opacity="0.350" /><path d="M 301.45 163.29 L 304.55 163.29" fill="none" stroke="#b2382a" stroke-width="0.65" opacity="0.350" /><path d="M 301.45 154.32 L 304.55 154.32" fill="none" stroke="#b2382a" stroke-width="0.65" opacity="0.350" /><path d="M 309.73 161.88 L 309.73 157.07" fill="none" stroke="#b2382a" stroke-width="0.65" opacity="0.350" /><path d="M 308.18 161.88 L 311.27 161.88" fill="none" stroke="#b2382a" stroke-width="0.65" opacity="0.350" /><path d="M 308.18 157.07 L 311.27 157.07" fill="none" stroke="#b2382a" stroke-width="0.65" opacity="0.350" /><path d="M 316.45 159.31 L 316.45 149.96" fill="none" stroke="#b2382a" stroke-width="0.65" opacity="0.350" /><path d="M 314.91 159.31 L 318.00 159.31" fill="none" stroke="#b2382a" stroke-width="0.65" opacity="0.350" /><path d="M 314.91 149.96 L 318.00 149.96" fill="none" stroke="#b2382a" stroke-width="0.65" opacity="0.350" /><path d="M 323.18 176.85 L 323.18 174.86" fill="none" stroke="#b2382a" stroke-width="0.65" opacity="0.350" /><path d="M 321.63 176.85 L 324.73 176.85" fill="none" stroke="#b2382a" stroke-width="0.65" opacity="0.350" /><path d="M 321.63 174.86 L 324.73 174.86" fill="none" stroke="#b2382a" stroke-width="0.65" opacity="0.350" /><path d="M 329.91 160.14 L 329.91 116.10" fill="none" stroke="#b2382a" stroke-width="0.65" opacity="0.350" /><path d="M 328.36 160.14 L 331.45 160.14" fill="none" stroke="#b2382a" stroke-width="0.65" opacity="0.350" /><path d="M 328.36 116.10 L 331.45 116.10" fill="none" stroke="#b2382a" stroke-width="0.65" opacity="0.350" /><path d="M 336.63 181.70 L 336.63 180.18" fill="none" stroke="#b2382a" stroke-width="0.65" opacity="0.350" /><path d="M 335.09 181.70 L 338.18 181.70" fill="none" stroke="#b2382a" stroke-width="0.65" opacity="0.350" /><path d="M 335.09 180.18 L 338.18 180.18" fill="none" stroke="#b2382a" stroke-width="0.65" opacity="0.350" /><path d="M 343.36 170.96 L 343.36 150.57" fill="none" stroke="#b2382a" stroke-width="0.65" opacity="0.350" /><path d="M 341.81 170.96 L 344.91 170.96" fill="none" stroke="#b2382a" stroke-width="0.65" opacity="0.350" /><path d="M 341.81 150.57 L 344.91 150.57" fill="none" stroke="#b2382a" stroke-width="0.65" opacity="0.350" /><path d="M 188.64 86.23 L 195.37 90.50 L 202.09 65.00 L 208.82 61.12 L 215.55 98.63 L 222.27 70.00 L 229.00 52.31 L 235.73 55.58 L 242.46 78.08 L 249.18 163.30 L 255.91 108.14 L 262.64 133.92 L 269.36 93.53 L 276.09 78.67 L 282.82 129.38 L 289.54 100.49 L 296.27 112.42 L 303.00 98.63 L 309.73 94.84 L 316.45 80.33 L 323.18 60.34 L 329.91 127.90 L 336.63 80.85 L 343.36 124.10" fill="none" stroke="#21252a" stroke-width="0.90" opacity="0.900" /><path d="M 188.64 150.46 L 195.37 170.63 L 202.09 172.73 L 208.82 167.25 L 215.55 152.55 L 222.27 164.64 L 229.00 164.41 L 235.73 164.41 L 242.46 159.04 L 249.18 149.66 L 255.91 136.55 L 262.64 168.97 L 269.36 157.15 L 276.09 157.52 L 282.82 97.23 L 289.54 142.53 L 296.27 141.27 L 303.00 158.57 L 309.73 160.49 L 316.45 154.90 L 323.18 175.42 L 329.91 138.93 L 336.63 180.92 L 343.36 165.57" fill="none" stroke="#b2382a" stroke-width="0.90" opacity="0.900" /><text class="cf-text cf-label" text-anchor="middle" x="266.00" y="218.10">ESEC events (chronological index)</text><text class="cf-text cf-label" text-anchor="middle" transform="translate(152.20,117.80) rotate(-90)">Volume V [m<tspan baseline-shift="super" font-size="70%">3</tspan>] (log)</text><text text-anchor="middle" transform="translate(379.80,117.80) rotate(90)" font-family="&quot;IBM Plex Sans&quot;, &quot;Source Sans 3&quot;, Arial, sans-serif" font-size="8.6px" fill="#b2382a">H/L [-]</text><line x1="179.20" y1="231.60" x2="189.20" y2="231.60" stroke="#21252a" stroke-width="0.95" /><text class="cf-text cf-legendtext" x="192.20" y="234.20">Volume V</text><line x1="179.20" y1="241.60" x2="189.20" y2="241.60" stroke="#b2382a" stroke-width="0.95" /><text class="cf-text cf-legendtext" x="192.20" y="244.20">H/L</text></g></g></svg>