<svg xmlns="http://www.w3.org/2000/svg" width="448.00pt" height="428.00pt" viewBox="0 0 448.00 428.00" role="img" aria-label="cleanfig figure"><style>.cf-text{font-family:"IBM Plex Sans", "Source Sans 3", 'Arial', sans-serif;fill:#191c20;font-weight:400;} .cf-axis{stroke:#656d76;stroke-width:0.55;fill:none;stroke-linecap:square;} .cf-tick{stroke:#707881;stroke-width:0.45;} .cf-label{font-size:8.6px;font-weight:400;} .cf-ticklabel{font-size:7.2px;font-weight:400;fill:#494f57;} .cf-panel{font-size:11.2px;font-weight:700;} .cf-cbarlabel{font-size:7.8px;font-weight:400;} .cf-legendtext{font-size:7.2px;font-weight:400;fill:#494f57;}</style><rect x="0" y="0" width="448.00" height="428.00" fill="#ffffff" /><g transform="translate(-28.00,-62.00)"><g data-panel="0-0"><text class="cf-text cf-panel" x="44.00" y="74.00">A</text><line class="cf-axis" x1="70.00" y1="201.00" x2="225.00" y2="201.00" /><line class="cf-axis" x1="66.00" y1="84.00" x2="66.00" y2="197.00" /><line class="cf-tick" x1="66.00" y1="201.00" x2="66.00" y2="205.50" /><text class="cf-text cf-ticklabel" text-anchor="middle" x="66.00" y="214.50">1970-01</text><line class="cf-tick" x1="113.70" y1="201.00" x2="113.70" y2="205.50" /><text class="cf-text cf-ticklabel" text-anchor="middle" x="113.70" y="214.50">1970-01</text><line class="cf-tick" x1="161.40" y1="201.00" x2="161.40" y2="205.50" /><text class="cf-text cf-ticklabel" text-anchor="middle" x="161.40" y="214.50">1970-03</text><line class="cf-tick" x1="209.10" y1="201.00" x2="209.10" y2="205.50" /><text class="cf-text cf-ticklabel" text-anchor="middle" x="209.10" y="214.50">1970-04</text><line class="cf-tick" x1="61.50" y1="201.00" x2="66.00" y2="201.00" /><text class="cf-text cf-ticklabel" text-anchor="end" x="58.50" y="203.80">0</text><line class="cf-tick" x1="61.50" y1="171.75" x2="66.00" y2="171.75" /><text class="cf-text cf-ticklabel" text-anchor="end" x="58.50" y="174.55">50</text><line class="cf-tick" x1="61.50" y1="142.50" x2="66.00" y2="142.50" /><text class="cf-text cf-ticklabel" text-anchor="end" x="58.50" y="145.30">100</text><line class="cf-tick" x1="61.50" y1="113.25" x2="66.00" y2="113.25" /><text class="cf-text cf-ticklabel" text-anchor="end" x="58.50" y="116.05">150</text><line class="cf-tick" x1="61.50" y1="84.00" x2="66.00" y2="84.00" /><text class="cf-text cf-ticklabel" text-anchor="end" x="58.50" y="86.80">200</text><circle cx="132.31" cy="177.18" r="3.00" fill="#f29e6f" stroke="none" stroke-width="0.00" opacity="0.650" /><circle cx="180.53" cy="148.72" r="3.00" fill="#fdb7bd" stroke="none" stroke-width="0.00" opacity="0.650" /><circle cx="66.02" cy="148.59" r="3.00" fill="#011959" stroke="none" stroke-width="0.00" opacity="0.650" /><circle cx="114.07" cy="177.45" r="3.00" fill="#e69a5f" stroke="none" stroke-width="0.00" opacity="0.650" /><circle cx="89.33" cy="146.63" r="3.00" fill="#ea9b64" stroke="none" stroke-width="0.00" opacity="0.650" /><circle cx="80.68" cy="163.61" r="3.00" fill="#c8923f" stroke="none" stroke-width="0.00" opacity="0.650" /><circle cx="95.62" cy="198.59" r="3.00" fill="#687b3f" stroke="none" stroke-width="0.00" opacity="0.650" /><circle cx="120.94" cy="143.34" r="3.00" fill="#f8ab98" stroke="none" stroke-width="0.00" opacity="0.650" /><circle cx="129.09" cy="156.33" r="3.00" fill="#f7a891" stroke="none" stroke-width="0.00" opacity="0.650" /><circle cx="151.67" cy="134.00" r="3.00" fill="#fdb6bb" stroke="none" stroke-width="0.00" opacity="0.650" /><circle cx="132.65" cy="186.16" r="3.00" fill="#e09859" stroke="none" stroke-width="0.00" opacity="0.650" /><circle cx="174.95" cy="174.99" r="3.00" fill="#f7a891" stroke="none" stroke-width="0.00" opacity="0.650" /><circle cx="98.51" cy="144.82" r="3.00" fill="#f4a077" stroke="none" stroke-width="0.00" opacity="0.650" /><circle cx="205.62" cy="113.03" r="3.00" fill="#fbc5e5" stroke="none" stroke-width="0.00" opacity="0.650" /><circle cx="70.35" cy="196.47" r="3.00" fill="#366958" stroke="none" stroke-width="0.00" opacity="0.650" /><circle cx="172.60" cy="140.09" r="3.00" fill="#fcb8c2" stroke="none" stroke-width="0.00" opacity="0.650" /><circle cx="132.35" cy="152.18" r="3.00" fill="#f9ab99" stroke="none" stroke-width="0.00" opacity="0.650" /><circle cx="154.83" cy="137.45" r="3.00" fill="#fdb5ba" stroke="none" stroke-width="0.00" opacity="0.650" /><circle cx="88.32" cy="158.20" r="3.00" fill="#df9858" stroke="none" stroke-width="0.00" opacity="0.650" /><circle cx="97.50" cy="192.15" r="3.00" fill="#a88b34" stroke="none" stroke-width="0.00" opacity="0.650" /><circle cx="193.32" cy="167.78" r="3.00" fill="#fbb0a9" stroke="none" stroke-width="0.00" opacity="0.650" /><circle cx="219.95" cy="125.39" r="3.00" fill="#fbc3e2" stroke="none" stroke-width="0.00" opacity="0.650" /><circle cx="115.83" cy="196.54" r="3.00" fill="#9d8833" stroke="none" stroke-width="0.00" opacity="0.650" /><circle cx="176.08" cy="167.95" r="3.00" fill="#faada0" stroke="none" stroke-width="0.00" opacity="0.650" /><circle cx="205.35" cy="103.89" r="3.00" fill="#fbc6ea" stroke="none" stroke-width="0.00" opacity="0.650" /><circle cx="208.24" cy="118.22" r="3.00" fill="#fbc4e2" stroke="none" stroke-width="0.00" opacity="0.650" /><circle cx="79.52" cy="167.76" r="3.00" fill="#c09036" stroke="none" stroke-width="0.00" opacity="0.650" /><circle cx="72.21" cy="151.03" r="3.00" fill="#ad8c35" stroke="none" stroke-width="0.00" opacity="0.650" /><circle cx="93.00" cy="192.37" r="3.00" fill="#9f8933" stroke="none" stroke-width="0.00" opacity="0.650" /><circle cx="205.62" cy="137.46" r="3.00" fill="#fcbed3" stroke="none" stroke-width="0.00" opacity="0.650" /><circle cx="81.64" cy="165.78" r="3.00" fill="#c8923f" stroke="none" stroke-width="0.00" opacity="0.650" /><circle cx="132.96" cy="139.47" r="3.00" fill="#fbafa7" stroke="none" stroke-width="0.00" opacity="0.650" /><circle cx="218.30" cy="97.84" r="3.00" fill="#fac9f2" stroke="none" stroke-width="0.00" opacity="0.650" /><circle cx="150.77" cy="191.50" r="3.00" fill="#d89650" stroke="none" stroke-width="0.00" opacity="0.650" /><circle cx="176.01" cy="135.56" r="3.00" fill="#fcbac7" stroke="none" stroke-width="0.00" opacity="0.650" /><circle cx="116.17" cy="184.54" r="3.00" fill="#d99651" stroke="none" stroke-width="0.00" opacity="0.650" /><circle cx="175.15" cy="135.68" r="3.00" fill="#fcbac7" stroke="none" stroke-width="0.00" opacity="0.650" /><circle cx="198.71" cy="140.33" r="3.00" fill="#fcbccd" stroke="none" stroke-width="0.00" opacity="0.650" /><circle cx="68.91" cy="149.84" r="3.00" fill="#888332" stroke="none" stroke-width="0.00" opacity="0.650" /><circle cx="185.27" cy="132.40" r="3.00" fill="#fcbdce" stroke="none" stroke-width="0.00" opacity="0.650" /><circle cx="223.23" cy="86.34" r="3.00" fill="#faccfa" stroke="none" stroke-width="0.00" opacity="0.650" /><circle cx="184.96" cy="168.37" r="3.00" fill="#faaea4" stroke="none" stroke-width="0.00" opacity="0.650" /><circle cx="110.59" cy="195.12" r="3.00" fill="#a58a34" stroke="none" stroke-width="0.00" opacity="0.650" /><circle cx="191.50" cy="163.63" r="3.00" fill="#fcb2af" stroke="none" stroke-width="0.00" opacity="0.650" /><circle cx="82.41" cy="197.41" r="3.00" fill="#607843" stroke="none" stroke-width="0.00" opacity="0.650" /><circle cx="137.22" cy="189.22" r="3.00" fill="#d99752" stroke="none" stroke-width="0.00" opacity="0.650" /><circle cx="210.47" cy="132.82" r="3.00" fill="#fbc0d9" stroke="none" stroke-width="0.00" opacity="0.650" /><circle cx="112.68" cy="156.75" r="3.00" fill="#f5a37f" stroke="none" stroke-width="0.00" opacity="0.650" /><circle cx="111.76" cy="165.79" r="3.00" fill="#f29e70" stroke="none" stroke-width="0.00" opacity="0.650" /><circle cx="86.67" cy="199.14" r="3.00" fill="#4d734d" stroke="none" stroke-width="0.00" opacity="0.650" /><circle cx="69.08" cy="196.15" r="3.00" fill="#2c645c" stroke="none" stroke-width="0.00" opacity="0.650" /><circle cx="173.93" cy="126.99" r="3.00" fill="#fcbccd" stroke="none" stroke-width="0.00" opacity="0.650" /><circle cx="99.65" cy="166.08" r="3.00" fill="#e79a61" stroke="none" stroke-width="0.00" opacity="0.650" /><circle cx="108.22" cy="186.90" r="3.00" fill="#cb9343" stroke="none" stroke-width="0.00" opacity="0.650" /><circle cx="144.16" cy="179.41" r="3.00" fill="#f39f73" stroke="none" stroke-width="0.00" opacity="0.650" /><circle cx="74.48" cy="156.72" r="3.00" fill="#b78e35" stroke="none" stroke-width="0.00" opacity="0.650" /><circle cx="157.28" cy="179.24" r="3.00" fill="#f4a27c" stroke="none" stroke-width="0.00" opacity="0.650" /><circle cx="89.33" cy="165.77" r="3.00" fill="#d99651" stroke="none" stroke-width="0.00" opacity="0.650" /><circle cx="159.70" cy="133.12" r="3.00" fill="#fdb8c0" stroke="none" stroke-width="0.00" opacity="0.650" /><circle cx="177.26" cy="132.11" r="3.00" fill="#fcbbcb" stroke="none" stroke-width="0.00" opacity="0.650" /><circle cx="82.27" cy="185.99" r="3.00" fill="#a18934" stroke="none" stroke-width="0.00" opacity="0.650" /><circle cx="131.83" cy="167.48" r="3.00" fill="#f5a482" stroke="none" stroke-width="0.00" opacity="0.650" /><circle cx="176.41" cy="145.89" r="3.00" fill="#fdb7be" stroke="none" stroke-width="0.00" opacity="0.650" /><circle cx="131.85" cy="147.86" r="3.00" fill="#f9ac9e" stroke="none" stroke-width="0.00" opacity="0.650" /><circle cx="73.94" cy="191.08" r="3.00" fill="#6c7c3d" stroke="none" stroke-width="0.00" opacity="0.650" /><circle cx="151.21" cy="191.39" r="3.00" fill="#d89651" stroke="none" stroke-width="0.00" opacity="0.650" /><circle cx="171.54" cy="180.74" r="3.00" fill="#f5a381" stroke="none" stroke-width="0.00" opacity="0.650" /><circle cx="147.87" cy="164.87" r="3.00" fill="#f8a994" stroke="none" stroke-width="0.00" opacity="0.650" /><circle cx="216.19" cy="99.72" r="3.00" fill="#fac9f1" stroke="none" stroke-width="0.00" opacity="0.650" /><circle cx="159.26" cy="156.74" r="3.00" fill="#fbafa8" stroke="none" stroke-width="0.00" opacity="0.650" /><circle cx="209.64" cy="128.87" r="3.00" fill="#fbc1db" stroke="none" stroke-width="0.00" opacity="0.650" /><circle cx="87.86" cy="142.00" r="3.00" fill="#eb9b65" stroke="none" stroke-width="0.00" opacity="0.650" /><circle cx="88.14" cy="165.91" r="3.00" fill="#d6964f" stroke="none" stroke-width="0.00" opacity="0.650" /><circle cx="194.38" cy="145.62" r="3.00" fill="#fcbac7" stroke="none" stroke-width="0.00" opacity="0.650" /><circle cx="129.23" cy="164.50" r="3.00" fill="#f6a585" stroke="none" stroke-width="0.00" opacity="0.650" /><circle cx="92.29" cy="156.06" r="3.00" fill="#e79a61" stroke="none" stroke-width="0.00" opacity="0.650" /><circle cx="213.47" cy="101.43" r="3.00" fill="#fac8ef" stroke="none" stroke-width="0.00" opacity="0.650" /><circle cx="121.29" cy="182.17" r="3.00" fill="#e2995c" stroke="none" stroke-width="0.00" opacity="0.650" /><circle cx="185.38" cy="172.14" r="3.00" fill="#f9ac9d" stroke="none" stroke-width="0.00" opacity="0.650" /><circle cx="181.43" cy="157.29" r="3.00" fill="#fdb3b3" stroke="none" stroke-width="0.00" opacity="0.650" /><circle cx="206.45" cy="115.72" r="3.00" fill="#fbc4e3" stroke="none" stroke-width="0.00" opacity="0.650" /><circle cx="165.16" cy="175.48" r="3.00" fill="#f6a68b" stroke="none" stroke-width="0.00" opacity="0.650" /><circle cx="185.40" cy="131.97" r="3.00" fill="#fcbdcf" stroke="none" stroke-width="0.00" opacity="0.650" /><circle cx="121.47" cy="193.76" r="3.00" fill="#ba8f36" stroke="none" stroke-width="0.00" opacity="0.650" /><circle cx="108.92" cy="183.52" r="3.00" fill="#d5954d" stroke="none" stroke-width="0.00" opacity="0.650" /><circle cx="208.45" cy="102.33" r="3.00" fill="#fbc7ec" stroke="none" stroke-width="0.00" opacity="0.650" /><circle cx="134.07" cy="184.71" r="3.00" fill="#e59a5e" stroke="none" stroke-width="0.00" opacity="0.650" /><circle cx="219.41" cy="90.77" r="3.00" fill="#facbf6" stroke="none" stroke-width="0.00" opacity="0.650" /><circle cx="171.49" cy="154.17" r="3.00" fill="#fcb3b2" stroke="none" stroke-width="0.00" opacity="0.650" /><circle cx="164.85" cy="133.80" r="3.00" fill="#fcb9c3" stroke="none" stroke-width="0.00" opacity="0.650" /><circle cx="84.24" cy="184.56" r="3.00" fill="#ac8b34" stroke="none" stroke-width="0.00" opacity="0.650" /><circle cx="216.97" cy="129.70" r="3.00" fill="#fbc2de" stroke="none" stroke-width="0.00" opacity="0.650" /><circle cx="137.54" cy="152.45" r="3.00" fill="#f9ac9d" stroke="none" stroke-width="0.00" opacity="0.650" /><circle cx="157.96" cy="145.28" r="3.00" fill="#fdb3b4" stroke="none" stroke-width="0.00" opacity="0.650" /><circle cx="130.89" cy="143.39" r="3.00" fill="#faaea2" stroke="none" stroke-width="0.00" opacity="0.650" /><circle cx="103.69" cy="144.57" r="3.00" fill="#f5a380" stroke="none" stroke-width="0.00" opacity="0.650" /><circle cx="209.64" cy="146.63" r="3.00" fill="#fcbccc" stroke="none" stroke-width="0.00" opacity="0.650" /><circle cx="157.22" cy="176.99" r="3.00" fill="#f5a482" stroke="none" stroke-width="0.00" opacity="0.650" /><circle cx="66.46" cy="164.33" r="3.00" fill="#30665a" stroke="none" stroke-width="0.00" opacity="0.650" /><circle cx="164.13" cy="132.68" r="3.00" fill="#fcb9c3" stroke="none" stroke-width="0.00" opacity="0.650" /><text class="cf-text cf-label" text-anchor="middle" x="145.50" y="227.50">x-label [unit]</text><text class="cf-text cf-label" text-anchor="middle" transform="translate(39.00,142.50) rotate(-90)">y-label [unit]</text><text class="cf-text cf-cbarlabel" text-anchor="middle" x="141.00" y="239.50">Colorbar label [unit]</text><line class="cf-axis" x1="72.00" y1="256.00" x2="210.00" y2="256.00" /><rect x="72.00" y="254.80" width="3.91" height="1.20" fill="#031e5a" stroke="none" opacity="0.95" /><rect x="76.31" y="255.20" width="3.91" height="0.80" fill="#07295c" stroke="none" opacity="0.95" /><rect x="80.62" y="255.20" width="3.91" height="0.80" fill="#0b335d" stroke="none" opacity="0.95" /><rect x="84.94" y="255.20" width="3.91" height="0.80" fill="#0f3e5f" stroke="none" opacity="0.95" /><rect x="89.25" y="255.20" width="3.91" height="0.80" fill="#134760" stroke="none" opacity="0.95" /><rect x="93.56" y="255.20" width="3.91" height="0.80" fill="#174e60" stroke="none" opacity="0.95" /><rect x="97.88" y="255.20" width="3.91" height="0.80" fill="#1c5561" stroke="none" opacity="0.95" /><rect x="102.19" y="255.20" width="3.91" height="0.80" fill="#205c61" stroke="none" opacity="0.95" /><rect x="106.50" y="254.80" width="3.91" height="1.20" fill="#27625f" stroke="none" opacity="0.95" /><rect x="110.81" y="253.60" width="3.91" height="2.40" fill="#32675a" stroke="none" opacity="0.95" /><rect x="115.12" y="255.20" width="3.91" height="0.80" fill="#3d6c55" stroke="none" opacity="0.95" /><rect x="119.44" y="255.20" width="3.91" height="0.80" fill="#487150" stroke="none" opacity="0.95" /><rect x="123.75" y="254.80" width="3.91" height="1.20" fill="#54754a" stroke="none" opacity="0.95" /><rect x="128.06" y="254.80" width="3.91" height="1.20" fill="#617943" stroke="none" opacity="0.95" /><rect x="132.38" y="253.60" width="3.91" height="2.40" fill="#6e7c3c" stroke="none" opacity="0.95" /><rect x="136.69" y="255.20" width="3.91" height="0.80" fill="#7b8035" stroke="none" opacity="0.95" /><rect x="141.00" y="254.80" width="3.91" height="1.20" fill="#8a8432" stroke="none" opacity="0.95" /><rect x="145.31" y="253.60" width="3.91" height="2.40" fill="#998733" stroke="none" opacity="0.95" /><rect x="149.62" y="250.00" width="3.91" height="6.00" fill="#a98b34" stroke="none" opacity="0.95" /><rect x="153.94" y="253.60" width="3.91" height="2.40" fill="#b88e35" stroke="none" opacity="0.95" /><rect x="158.25" y="251.20" width="3.91" height="4.80" fill="#c6923d" stroke="none" opacity="0.95" /><rect x="162.56" y="248.80" width="3.91" height="7.20" fill="#d3954b" stroke="none" opacity="0.95" /><rect x="166.88" y="250.00" width="3.91" height="6.00" fill="#df9858" stroke="none" opacity="0.95" /><rect x="171.19" y="250.00" width="3.91" height="6.00" fill="#ec9b66" stroke="none" opacity="0.95" /><rect x="175.50" y="248.80" width="3.91" height="7.20" fill="#f3a076" stroke="none" opacity="0.95" /><rect x="179.81" y="246.40" width="3.91" height="9.60" fill="#f6a688" stroke="none" opacity="0.95" /><rect x="184.12" y="246.40" width="3.91" height="9.60" fill="#f9ab9b" stroke="none" opacity="0.95" /><rect x="188.44" y="246.40" width="3.91" height="9.60" fill="#fcb1ad" stroke="none" opacity="0.95" /><rect x="192.75" y="244.00" width="3.91" height="12.00" fill="#fdb7bf" stroke="none" opacity="0.95" /><rect x="197.06" y="246.40" width="3.91" height="9.60" fill="#fcbdd0" stroke="none" opacity="0.95" /><rect x="201.38" y="247.60" width="3.91" height="8.40" fill="#fbc3e1" stroke="none" opacity="0.95" /><rect x="205.69" y="247.60" width="3.91" height="8.40" fill="#fac9f2" stroke="none" opacity="0.95" /><line class="cf-tick" x1="72.00" y1="256.00" x2="72.00" y2="259.50" /><text class="cf-text cf-ticklabel" text-anchor="start" x="72.00" y="268.00">0.02</text><line class="cf-tick" x1="141.00" y1="256.00" x2="141.00" y2="259.50" /><text class="cf-text cf-ticklabel" text-anchor="middle" x="141.00" y="268.00">4.95</text><line class="cf-tick" x1="210.00" y1="256.00" x2="210.00" y2="259.50" /><text class="cf-text cf-ticklabel" text-anchor="end" x="210.00" y="268.00">9.87</text></g><g data-panel="0-1"><text class="cf-text cf-panel" x="285.00" y="74.00">B</text><line class="cf-axis" x1="311.00" y1="201.00" x2="466.00" y2="201.00" /><line class="cf-axis" x1="307.00" y1="84.00" x2="307.00" y2="197.00" /><line class="cf-tick" x1="307.00" y1="201.00" x2="307.00" y2="205.50" /><text class="cf-text cf-ticklabel" text-anchor="middle" x="307.00" y="214.50">1970-01</text><line class="cf-tick" x1="354.70" y1="201.00" x2="354.70" y2="205.50" /><text class="cf-text cf-ticklabel" text-anchor="middle" x="354.70" y="214.50">1970-01</text><line class="cf-tick" x1="402.40" y1="201.00" x2="402.40" y2="205.50" /><text class="cf-text cf-ticklabel" text-anchor="middle" x="402.40" y="214.50">1970-03</text><line class="cf-tick" x1="450.10" y1="201.00" x2="450.10" y2="205.50" /><text class="cf-text cf-ticklabel" text-anchor="middle" x="450.10" y="214.50">1970-04</text><line class="cf-tick" x1="302.50" y1="201.00" x2="307.00" y2="201.00" /><text class="cf-text cf-ticklabel" text-anchor="end" x="299.50" y="203.80">0</text><line class="cf-tick" x1="302.50" y1="171.75" x2="307.00" y2="171.75" /><text class="cf-text cf-ticklabel" text-anchor="end" x="299.50" y="174.55">50</text><line class="cf-tick" x1="302.50" y1="142.50" x2="307.00" y2="142.50" /><text class="cf-text cf-ticklabel" text-anchor="end" x="299.50" y="145.30">100</text><line class="cf-tick" x1="302.50" y1="113.25" x2="307.00" y2="113.25" /><text class="cf-text cf-ticklabel" text-anchor="end" x="299.50" y="116.05">150</text><line class="cf-tick" x1="302.50" y1="84.00" x2="307.00" y2="84.00" /><text class="cf-text cf-ticklabel" text-anchor="end" x="299.50" y="86.80">200</text><circle cx="373.31" cy="177.18" r="3.00" fill="#e2862a" stroke="none" stroke-width="0.00" opacity="0.650" /><circle cx="421.53" cy="148.72" r="3.00" fill="#e2862a" stroke="none" stroke-width="0.00" opacity="0.650" /><circle cx="307.02" cy="148.59" r="3.00" fill="#e2862a" stroke="none" stroke-width="0.00" opacity="0.650" /><circle cx="355.07" cy="177.45" r="3.00" fill="#e2862a" stroke="none" stroke-width="0.00" opacity="0.650" /><circle cx="330.33" cy="146.63" r="3.00" fill="#e2862a" stroke="none" stroke-width="0.00" opacity="0.650" /><circle cx="321.68" cy="163.61" r="3.00" fill="#e2862a" stroke="none" stroke-width="0.00" opacity="0.650" /><circle cx="336.62" cy="198.59" r="3.00" fill="#e2862a" stroke="none" stroke-width="0.00" opacity="0.650" /><circle cx="361.94" cy="143.34" r="3.00" fill="#e2862a" stroke="none" stroke-width="0.00" opacity="0.650" /><circle cx="370.09" cy="156.33" r="3.00" fill="#e2862a" stroke="none" stroke-width="0.00" opacity="0.650" /><circle cx="392.67" cy="134.00" r="3.00" fill="#e2862a" stroke="none" stroke-width="0.00" opacity="0.650" /><circle cx="373.65" cy="186.16" r="3.00" fill="#e2862a" stroke="none" stroke-width="0.00" opacity="0.650" /><circle cx="415.95" cy="174.99" r="3.00" fill="#e2862a" stroke="none" stroke-width="0.00" opacity="0.650" /><circle cx="339.51" cy="144.82" r="3.00" fill="#e2862a" stroke="none" stroke-width="0.00" opacity="0.650" /><circle cx="446.62" cy="113.03" r="3.00" fill="#e2862a" stroke="none" stroke-width="0.00" opacity="0.650" /><circle cx="311.35" cy="196.47" r="3.00" fill="#e2862a" stroke="none" stroke-width="0.00" opacity="0.650" /><circle cx="413.60" cy="140.09" r="3.00" fill="#e2862a" stroke="none" stroke-width="0.00" opacity="0.650" /><circle cx="373.35" cy="152.18" r="3.00" fill="#e2862a" stroke="none" stroke-width="0.00" opacity="0.650" /><circle cx="395.83" cy="137.45" r="3.00" fill="#e2862a" stroke="none" stroke-width="0.00" opacity="0.650" /><circle cx="329.32" cy="158.20" r="3.00" fill="#e2862a" stroke="none" stroke-width="0.00" opacity="0.650" /><circle cx="338.50" cy="192.15" r="3.00" fill="#e2862a" stroke="none" stroke-width="0.00" opacity="0.650" /><circle cx="434.32" cy="167.78" r="3.00" fill="#e2862a" stroke="none" stroke-width="0.00" opacity="0.650" /><circle cx="460.95" cy="125.39" r="3.00" fill="#e2862a" stroke="none" stroke-width="0.00" opacity="0.650" /><circle cx="356.83" cy="196.54" r="3.00" fill="#e2862a" stroke="none" stroke-width="0.00" opacity="0.650" /><circle cx="417.08" cy="167.95" r="3.00" fill="#e2862a" stroke="none" stroke-width="0.00" opacity="0.650" /><circle cx="446.35" cy="103.89" r="3.00" fill="#e2862a" stroke="none" stroke-width="0.00" opacity="0.650" /><circle cx="449.24" cy="118.22" r="3.00" fill="#e2862a" stroke="none" stroke-width="0.00" opacity="0.650" /><circle cx="320.52" cy="167.76" r="3.00" fill="#e2862a" stroke="none" stroke-width="0.00" opacity="0.650" /><circle cx="313.21" cy="151.03" r="3.00" fill="#e2862a" stroke="none" stroke-width="0.00" opacity="0.650" /><circle cx="334.00" cy="192.37" r="3.00" fill="#e2862a" stroke="none" stroke-width="0.00" opacity="0.650" /><circle cx="446.62" cy="137.46" r="3.00" fill="#e2862a" stroke="none" stroke-width="0.00" opacity="0.650" /><circle cx="322.64" cy="165.78" r="3.00" fill="#e2862a" stroke="none" stroke-width="0.00" opacity="0.650" /><circle cx="373.96" cy="139.47" r="3.00" fill="#e2862a" stroke="none" stroke-width="0.00" opacity="0.650" /><circle cx="459.30" cy="97.84" r="3.00" fill="#e2862a" stroke="none" stroke-width="0.00" opacity="0.650" /><circle cx="391.77" cy="191.50" r="3.00" fill="#e2862a" stroke="none" stroke-width="0.00" opacity="0.650" /><circle cx="417.01" cy="135.56" r="3.00" fill="#e2862a" stroke="none" stroke-width="0.00" opacity="0.650" /><circle cx="357.17" cy="184.54" r="3.00" fill="#e2862a" stroke="none" stroke-width="0.00" opacity="0.650" /><circle cx="416.15" cy="135.68" r="3.00" fill="#e2862a" stroke="none" stroke-width="0.00" opacity="0.650" /><circle cx="439.71" cy="140.33" r="3.00" fill="#e2862a" stroke="none" stroke-width="0.00" opacity="0.650" /><circle cx="309.91" cy="149.84" r="3.00" fill="#e2862a" stroke="none" stroke-width="0.00" opacity="0.650" /><circle cx="426.27" cy="132.40" r="3.00" fill="#e2862a" stroke="none" stroke-width="0.00" opacity="0.650" /><circle cx="464.23" cy="86.34" r="3.00" fill="#e2862a" stroke="none" stroke-width="0.00" opacity="0.650" /><circle cx="425.96" cy="168.37" r="3.00" fill="#e2862a" stroke="none" stroke-width="0.00" opacity="0.650" /><circle cx="351.59" cy="195.12" r="3.00" fill="#e2862a" stroke="none" stroke-width="0.00" opacity="0.650" /><circle cx="432.50" cy="163.63" r="3.00" fill="#e2862a" stroke="none" stroke-width="0.00" opacity="0.650" /><circle cx="323.41" cy="197.41" r="3.00" fill="#e2862a" stroke="none" stroke-width="0.00" opacity="0.650" /><circle cx="378.22" cy="189.22" r="3.00" fill="#e2862a" stroke="none" stroke-width="0.00" opacity="0.650" /><circle cx="451.47" cy="132.82" r="3.00" fill="#e2862a" stroke="none" stroke-width="0.00" opacity="0.650" /><circle cx="353.68" cy="156.75" r="3.00" fill="#e2862a" stroke="none" stroke-width="0.00" opacity="0.650" /><circle cx="352.76" cy="165.79" r="3.00" fill="#e2862a" stroke="none" stroke-width="0.00" opacity="0.650" /><circle cx="327.67" cy="199.14" r="3.00" fill="#e2862a" stroke="none" stroke-width="0.00" opacity="0.650" /><circle cx="310.08" cy="196.15" r="3.00" fill="#e2862a" stroke="none" stroke-width="0.00" opacity="0.650" /><circle cx="414.93" cy="126.99" r="3.00" fill="#e2862a" stroke="none" stroke-width="0.00" opacity="0.650" /><circle cx="340.65" cy="166.08" r="3.00" fill="#e2862a" stroke="none" stroke-width="0.00" opacity="0.650" /><circle cx="349.22" cy="186.90" r="3.00" fill="#e2862a" stroke="none" stroke-width="0.00" opacity="0.650" /><circle cx="385.16" cy="179.41" r="3.00" fill="#e2862a" stroke="none" stroke-width="0.00" opacity="0.650" /><circle cx="315.48" cy="156.72" r="3.00" fill="#e2862a" stroke="none" stroke-width="0.00" opacity="0.650" /><circle cx="398.28" cy="179.24" r="3.00" fill="#e2862a" stroke="none" stroke-width="0.00" opacity="0.650" /><circle cx="330.33" cy="165.77" r="3.00" fill="#e2862a" stroke="none" stroke-width="0.00" opacity="0.650" /><circle cx="400.70" cy="133.12" r="3.00" fill="#e2862a" stroke="none" stroke-width="0.00" opacity="0.650" /><circle cx="418.26" cy="132.11" r="3.00" fill="#e2862a" stroke="none" stroke-width="0.00" opacity="0.650" /><circle cx="323.27" cy="185.99" r="3.00" fill="#e2862a" stroke="none" stroke-width="0.00" opacity="0.650" /><circle cx="372.83" cy="167.48" r="3.00" fill="#e2862a" stroke="none" stroke-width="0.00" opacity="0.650" /><circle cx="417.41" cy="145.89" r="3.00" fill="#e2862a" stroke="none" stroke-width="0.00" opacity="0.650" /><circle cx="372.85" cy="147.86" r="3.00" fill="#e2862a" stroke="none" stroke-width="0.00" opacity="0.650" /><circle cx="314.94" cy="191.08" r="3.00" fill="#e2862a" stroke="none" stroke-width="0.00" opacity="0.650" /><circle cx="392.21" cy="191.39" r="3.00" fill="#e2862a" stroke="none" stroke-width="0.00" opacity="0.650" /><circle cx="412.54" cy="180.74" r="3.00" fill="#e2862a" stroke="none" stroke-width="0.00" opacity="0.650" /><circle cx="388.87" cy="164.87" r="3.00" fill="#e2862a" stroke="none" stroke-width="0.00" opacity="0.650" /><circle cx="457.19" cy="99.72" r="3.00" fill="#e2862a" stroke="none" stroke-width="0.00" opacity="0.650" /><circle cx="400.26" cy="156.74" r="3.00" fill="#e2862a" stroke="none" stroke-width="0.00" opacity="0.650" /><circle cx="450.64" cy="128.87" r="3.00" fill="#e2862a" stroke="none" stroke-width="0.00" opacity="0.650" /><circle cx="328.86" cy="142.00" r="3.00" fill="#e2862a" stroke="none" stroke-width="0.00" opacity="0.650" /><circle cx="329.14" cy="165.91" r="3.00" fill="#e2862a" stroke="none" stroke-width="0.00" opacity="0.650" /><circle cx="435.38" cy="145.62" r="3.00" fill="#e2862a" stroke="none" stroke-width="0.00" opacity="0.650" /><circle cx="370.23" cy="164.50" r="3.00" fill="#e2862a" stroke="none" stroke-width="0.00" opacity="0.650" /><circle cx="333.29" cy="156.06" r="3.00" fill="#e2862a" stroke="none" stroke-width="0.00" opacity="0.650" /><circle cx="454.47" cy="101.43" r="3.00" fill="#e2862a" stroke="none" stroke-width="0.00" opacity="0.650" /><circle cx="362.29" cy="182.17" r="3.00" fill="#e2862a" stroke="none" stroke-width="0.00" opacity="0.650" /><circle cx="426.38" cy="172.14" r="3.00" fill="#e2862a" stroke="none" stroke-width="0.00" opacity="0.650" /><circle cx="422.43" cy="157.29" r="3.00" fill="#e2862a" stroke="none" stroke-width="0.00" opacity="0.650" /><circle cx="447.45" cy="115.72" r="3.00" fill="#e2862a" stroke="none" stroke-width="0.00" opacity="0.650" /><circle cx="406.16" cy="175.48" r="3.00" fill="#e2862a" stroke="none" stroke-width="0.00" opacity="0.650" /><circle cx="426.40" cy="131.97" r="3.00" fill="#e2862a" stroke="none" stroke-width="0.00" opacity="0.650" /><circle cx="362.47" cy="193.76" r="3.00" fill="#e2862a" stroke="none" stroke-width="0.00" opacity="0.650" /><circle cx="349.92" cy="183.52" r="3.00" fill="#e2862a" stroke="none" stroke-width="0.00" opacity="0.650" /><circle cx="449.45" cy="102.33" r="3.00" fill="#e2862a" stroke="none" stroke-width="0.00" opacity="0.650" /><circle cx="375.07" cy="184.71" r="3.00" fill="#e2862a" stroke="none" stroke-width="0.00" opacity="0.650" /><circle cx="460.41" cy="90.77" r="3.00" fill="#e2862a" stroke="none" stroke-width="0.00" opacity="0.650" /><circle cx="412.49" cy="154.17" r="3.00" fill="#e2862a" stroke="none" stroke-width="0.00" opacity="0.650" /><circle cx="405.85" cy="133.80" r="3.00" fill="#e2862a" stroke="none" stroke-width="0.00" opacity="0.650" /><circle cx="325.24" cy="184.56" r="3.00" fill="#e2862a" stroke="none" stroke-width="0.00" opacity="0.650" /><circle cx="457.97" cy="129.70" r="3.00" fill="#e2862a" stroke="none" stroke-width="0.00" opacity="0.650" /><circle cx="378.54" cy="152.45" r="3.00" fill="#e2862a" stroke="none" stroke-width="0.00" opacity="0.650" /><circle cx="398.96" cy="145.28" r="3.00" fill="#e2862a" stroke="none" stroke-width="0.00" opacity="0.650" /><circle cx="371.89" cy="143.39" r="3.00" fill="#e2862a" stroke="none" stroke-width="0.00" opacity="0.650" /><circle cx="344.69" cy="144.57" r="3.00" fill="#e2862a" stroke="none" stroke-width="0.00" opacity="0.650" /><circle cx="450.64" cy="146.63" r="3.00" fill="#e2862a" stroke="none" stroke-width="0.00" opacity="0.650" /><circle cx="398.22" cy="176.99" r="3.00" fill="#e2862a" stroke="none" stroke-width="0.00" opacity="0.650" /><circle cx="307.46" cy="164.33" r="3.00" fill="#e2862a" stroke="none" stroke-width="0.00" opacity="0.650" /><circle cx="405.13" cy="132.68" r="3.00" fill="#e2862a" stroke="none" stroke-width="0.00" opacity="0.650" /><path d="M 307.00 166.33 L 308.61 166.92 L 310.21 167.48 L 311.82 168.02 L 313.42 168.54 L 315.03 169.03 L 316.64 169.49 L 318.24 169.93 L 319.85 170.35 L 321.45 170.74 L 323.06 171.10 L 324.67 171.44 L 326.27 171.76 L 327.88 172.05 L 329.48 172.32 L 331.09 172.56 L 332.70 172.77 L 334.30 172.97 L 335.91 173.13 L 337.52 173.28 L 339.12 173.39 L 340.73 173.49 L 342.33 173.55 L 343.94 173.60 L 345.55 173.62 L 347.15 173.61 L 348.76 173.58 L 350.36 173.52 L 351.97 173.44 L 353.58 173.34 L 355.18 173.21 L 356.79 173.05 L 358.39 172.87 L 360.00 172.67 L 361.61 172.44 L 363.21 172.18 L 364.82 171.90 L 366.42 171.60 L 368.03 171.27 L 369.64 170.92 L 371.24 170.54 L 372.85 170.14 L 374.45 169.71 L 376.06 169.25 L 377.67 168.78 L 379.27 168.27 L 380.88 167.75 L 382.48 167.20 L 384.09 166.62 L 385.70 166.02 L 387.30 165.39 L 388.91 164.74 L 390.52 164.06 L 392.12 163.36 L 393.73 162.64 L 395.33 161.89 L 396.94 161.11 L 398.55 160.31 L 400.15 159.49 L 401.76 158.64 L 403.36 157.77 L 404.97 156.87 L 406.58 155.94 L 408.18 155.00 L 409.79 154.02 L 411.39 153.02 L 413.00 152.00 L 414.61 150.95 L 416.21 149.88 L 417.82 148.78 L 419.42 147.66 L 421.03 146.51 L 422.64 145.34 L 424.24 144.15 L 425.85 142.93 L 427.45 141.68 L 429.06 140.41 L 430.67 139.11 L 432.27 137.79 L 433.88 136.45 L 435.48 135.08 L 437.09 133.68 L 438.70 132.26 L 440.30 130.82 L 441.91 129.35 L 443.52 127.86 L 445.12 126.34 L 446.73 124.79 L 448.33 123.23 L 449.94 121.63 L 451.55 120.01 L 453.15 118.37 L 454.76 116.70 L 456.36 115.01 L 457.97 113.29 L 459.58 111.55 L 461.18 109.79 L 462.79 107.99 L 464.39 106.18 L 466.00 104.34" fill="none" stroke="#21252a" stroke-width="0.95" opacity="1.000" /><path d="M 307.00 170.81 L 308.61 170.83 L 310.21 170.84 L 311.82 170.87 L 313.42 170.89 L 315.03 170.92 L 316.64 170.96 L 318.24 170.99 L 319.85 171.03 L 321.45 171.07 L 323.06 171.10 L 324.67 171.14 L 326.27 171.17 L 327.88 171.21 L 329.48 171.24 L 331.09 171.27 L 332.70 171.29 L 334.30 171.31 L 335.91 171.33 L 337.52 171.34 L 339.12 171.34 L 340.73 171.34 L 342.33 171.33 L 343.94 171.31 L 345.55 171.29 L 347.15 171.25 L 348.76 171.21 L 350.36 171.15 L 351.97 171.08 L 353.58 171.01 L 355.18 170.91 L 356.79 170.81 L 358.39 170.69 L 360.00 170.56 L 361.61 170.41 L 363.21 170.25 L 364.82 170.07 L 366.42 169.88 L 368.03 169.67 L 369.64 169.44 L 371.24 169.19 L 372.85 168.92 L 374.45 168.63 L 376.06 168.32 L 377.67 167.99 L 379.27 167.64 L 380.88 167.27 L 382.48 166.87 L 384.09 166.45 L 385.70 166.00 L 387.30 165.53 L 388.91 165.04 L 390.52 164.52 L 392.12 163.97 L 393.73 163.39 L 395.33 162.79 L 396.94 162.16 L 398.55 161.49 L 400.15 160.80 L 401.76 160.08 L 403.36 159.33 L 404.97 158.54 L 406.58 157.73 L 408.18 156.87 L 409.79 155.99 L 411.39 155.07 L 413.00 154.12 L 414.61 153.13 L 416.21 152.11 L 417.82 151.04 L 419.42 149.94 L 421.03 148.81 L 422.64 147.63 L 424.24 146.42 L 425.85 145.16 L 427.45 143.87 L 429.06 142.53 L 430.67 141.15 L 432.27 139.73 L 433.88 138.26 L 435.48 136.76 L 437.09 135.20 L 438.70 133.61 L 440.30 131.96 L 441.91 130.28 L 443.52 128.54 L 445.12 126.76 L 446.73 124.93 L 448.33 123.05 L 449.94 121.12 L 451.55 119.14 L 453.15 117.11 L 454.76 115.03 L 456.36 112.89 L 457.97 110.71 L 459.58 108.47 L 461.18 106.18 L 462.79 103.83 L 464.39 101.43 L 466.00 98.98" fill="none" stroke="#6d8fae" stroke-width="0.95" opacity="1.000" /><text class="cf-text cf-label" text-anchor="middle" x="386.50" y="227.50">x-label [unit]</text><text class="cf-text cf-label" text-anchor="middle" transform="translate(280.00,142.50) rotate(-90)">y-label [unit]</text><circle cx="312.00" cy="241.00" r="2.6" fill="#e2862a" /><text class="cf-text cf-legendtext" x="320.00" y="243.60">Data</text><line x1="307.00" y1="251.00" x2="317.00" y2="251.00" stroke="#21252a" stroke-width="0.95" /><text class="cf-text cf-legendtext" x="320.00" y="253.60">Polynomial regression, n = 2</text><line x1="307.00" y1="261.00" x2="317.00" y2="261.00" stroke="#6d8fae" stroke-width="0.95" /><text class="cf-text cf-legendtext" x="320.00" y="263.60">Polynomial regression, n = 3</text></g><g data-panel="1-0"><text class="cf-text cf-panel" x="44.00" y="311.00">C</text><line class="cf-axis" x1="66.00" y1="321.00" x2="66.00" y2="438.00" /><text class="cf-text cf-ticklabel" text-anchor="middle" x="105.75" y="451.50">Vowels</text><text class="cf-text cf-ticklabel" text-anchor="middle" x="185.25" y="451.50">Consonants</text><line class="cf-tick" x1="61.50" y1="432.68" x2="66.00" y2="432.68" /><text class="cf-text cf-ticklabel" text-anchor="end" x="58.50" y="435.48">0</text><line class="cf-tick" x1="61.50" y1="406.42" x2="66.00" y2="406.42" /><text class="cf-text cf-ticklabel" text-anchor="end" x="58.50" y="409.22">20</text><line class="cf-tick" x1="61.50" y1="380.16" x2="66.00" y2="380.16" /><text class="cf-text cf-ticklabel" text-anchor="end" x="58.50" y="382.96">40</text><line class="cf-tick" x1="61.50" y1="353.89" x2="66.00" y2="353.89" /><text class="cf-text cf-ticklabel" text-anchor="end" x="58.50" y="356.69">60</text><line class="cf-tick" x1="61.50" y1="327.63" x2="66.00" y2="327.63" /><text class="cf-text cf-ticklabel" text-anchor="end" x="58.50" y="330.43">80</text><rect x="77.9250" y="402.4798" width="55.6500" height="30.2020" shape-rendering="crispEdges" fill="#9cb6cd" stroke="none" stroke-width="0.00" opacity="1.000" /><rect x="157.4250" y="326.3182" width="55.6500" height="106.3636" shape-rendering="crispEdges" fill="#9cb6cd" stroke="none" stroke-width="0.00" opacity="1.000" /><text class="cf-text cf-label" text-anchor="middle" transform="translate(39.00,379.50) rotate(-90)">Frequency</text></g><g data-panel="1-1"><text class="cf-text cf-panel" x="306.00" y="311.00">D</text><line class="cf-axis" x1="332.00" y1="438.00" x2="445.00" y2="438.00" /><line class="cf-axis" x1="328.00" y1="321.00" x2="328.00" y2="434.00" /><line class="cf-tick" x1="328.00" y1="438.00" x2="328.00" y2="442.50" /><text class="cf-text cf-ticklabel" text-anchor="middle" x="328.00" y="451.50">0</text><line class="cf-tick" x1="386.50" y1="438.00" x2="386.50" y2="442.50" /><text class="cf-text cf-ticklabel" text-anchor="middle" x="386.50" y="451.50">5</text><line class="cf-tick" x1="445.00" y1="438.00" x2="445.00" y2="442.50" /><text class="cf-text cf-ticklabel" text-anchor="middle" x="445.00" y="451.50">10</text><line class="cf-tick" x1="323.50" y1="438.00" x2="328.00" y2="438.00" /><text class="cf-text cf-ticklabel" text-anchor="end" x="320.50" y="440.80">0</text><line class="cf-tick" x1="323.50" y1="379.50" x2="328.00" y2="379.50" /><text class="cf-text cf-ticklabel" text-anchor="end" x="320.50" y="382.30">5</text><line class="cf-tick" x1="323.50" y1="321.00" x2="328.00" y2="321.00" /><text class="cf-text cf-ticklabel" text-anchor="end" x="320.50" y="323.80">10</text><g transform="translate(328.0000,438.0000) scale(11.70000000,-11.70000000)" shape-rendering="crispEdges"><rect x="-0.020" y="8.980" width="1.040" height="1.040" fill="#fbc6e8" stroke="none" /><rect x="0.980" y="8.980" width="1.040" height="1.040" fill="#a38934" stroke="none" /><rect x="1.980" y="8.980" width="1.040" height="1.040" fill="#fcbfd5" stroke="none" /><rect x="2.980" y="8.980" width="1.040" height="1.040" fill="#cb9342" stroke="none" /><rect x="3.980" y="8.980" width="1.040" height="1.040" fill="#567648" stroke="none" /><rect x="4.980" y="8.980" width="1.040" height="1.040" fill="#808132" stroke="none" /><rect x="5.980" y="8.980" width="1.040" height="1.040" fill="#bb8f36" stroke="none" /><rect x="6.980" y="8.980" width="1.040" height="1.040" fill="#9f8933" stroke="none" /><rect x="7.980" y="8.980" width="1.040" height="1.040" fill="#fbc1db" stroke="none" /><rect x="8.980" y="8.980" width="1.040" height="1.040" fill="#fcbfd7" stroke="none" /><rect x="-0.020" y="7.980" width="1.040" height="1.040" fill="#587647" stroke="none" /><rect x="0.980" y="7.980" width="1.040" height="1.040" fill="#fac8ef" stroke="none" /><rect x="1.980" y="7.980" width="1.040" height="1.040" fill="#184f60" stroke="none" /><rect x="2.980" y="7.980" width="1.040" height="1.040" fill="#114460" stroke="none" /><rect x="3.980" y="7.980" width="1.040" height="1.040" fill="#134660" stroke="none" /><rect x="4.980" y="7.980" width="1.040" height="1.040" fill="#898432" stroke="none" /><rect x="5.980" y="7.980" width="1.040" height="1.040" fill="#04205a" stroke="none" /><rect x="6.980" y="7.980" width="1.040" height="1.040" fill="#fbc5e7" stroke="none" /><rect x="7.980" y="7.980" width="1.040" height="1.040" fill="#faaea2" stroke="none" /><rect x="8.980" y="7.980" width="1.040" height="1.040" fill="#031e5a" stroke="none" /><rect x="-0.020" y="6.980" width="1.040" height="1.040" fill="#185060" stroke="none" /><rect x="0.980" y="6.980" width="1.040" height="1.040" fill="#406d53" stroke="none" /><rect x="1.980" y="6.980" width="1.040" height="1.040" fill="#124560" stroke="none" /><rect x="2.980" y="6.980" width="1.040" height="1.040" fill="#f8ab98" stroke="none" /><rect x="3.980" y="6.980" width="1.040" height="1.040" fill="#456f51" stroke="none" /><rect x="4.980" y="6.980" width="1.040" height="1.040" fill="#fbc4e2" stroke="none" /><rect x="5.980" y="6.980" width="1.040" height="1.040" fill="#b08c35" stroke="none" /><rect x="6.980" y="6.980" width="1.040" height="1.040" fill="#fdb8c0" stroke="none" /><rect x="7.980" y="6.980" width="1.040" height="1.040" fill="#fcb1ad" stroke="none" /><rect x="8.980" y="6.980" width="1.040" height="1.040" fill="#fcbdcf" stroke="none" /><rect x="-0.020" y="5.980" width="1.040" height="1.040" fill="#747e38" stroke="none" /><rect x="0.980" y="5.980" width="1.040" height="1.040" fill="#9e8833" stroke="none" /><rect x="1.980" y="5.980" width="1.040" height="1.040" fill="#f7a891" stroke="none" /><rect x="2.980" y="5.980" width="1.040" height="1.040" fill="#30665b" stroke="none" /><rect x="3.980" y="5.980" width="1.040" height="1.040" fill="#818231" stroke="none" /><rect x="4.980" y="5.980" width="1.040" height="1.040" fill="#b88e35" stroke="none" /><rect x="5.980" y="5.980" width="1.040" height="1.040" fill="#031e5a" stroke="none" /><rect x="6.980" y="5.980" width="1.040" height="1.040" fill="#b58e35" stroke="none" /><rect x="7.980" y="5.980" width="1.040" height="1.040" fill="#697b3e" stroke="none" /><rect x="8.980" y="5.980" width="1.040" height="1.040" fill="#f8aa97" stroke="none" /><rect x="-0.020" y="4.980" width="1.040" height="1.040" fill="#3a6b56" stroke="none" /><rect x="0.980" y="4.980" width="1.040" height="1.040" fill="#fcbac8" stroke="none" /><rect x="1.980" y="4.980" width="1.040" height="1.040" fill="#ae8c35" stroke="none" /><rect x="2.980" y="4.980" width="1.040" height="1.040" fill="#195160" stroke="none" /><rect x="3.980" y="4.980" width="1.040" height="1.040" fill="#f7a68b" stroke="none" /><rect x="4.980" y="4.980" width="1.040" height="1.040" fill="#bf9036" stroke="none" /><rect x="5.980" y="4.980" width="1.040" height="1.040" fill="#082b5c" stroke="none" /><rect x="6.980" y="4.980" width="1.040" height="1.040" fill="#637941" stroke="none" /><rect x="7.980" y="4.980" width="1.040" height="1.040" fill="#da9753" stroke="none" /><rect x="8.980" y="4.980" width="1.040" height="1.040" fill="#fcbfd6" stroke="none" /><rect x="-0.020" y="3.980" width="1.040" height="1.040" fill="#011959" stroke="none" /><rect x="0.980" y="3.980" width="1.040" height="1.040" fill="#facbf7" stroke="none" /><rect x="1.980" y="3.980" width="1.040" height="1.040" fill="#50744b" stroke="none" /><rect x="2.980" y="3.980" width="1.040" height="1.040" fill="#facaf5" stroke="none" /><rect x="3.980" y="3.980" width="1.040" height="1.040" fill="#bb8f36" stroke="none" /><rect x="4.980" y="3.980" width="1.040" height="1.040" fill="#faaea3" stroke="none" /><rect x="5.980" y="3.980" width="1.040" height="1.040" fill="#ac8b34" stroke="none" /><rect x="6.980" y="3.980" width="1.040" height="1.040" fill="#c6913c" stroke="none" /><rect x="7.980" y="3.980" width="1.040" height="1.040" fill="#30665b" stroke="none" /><rect x="8.980" y="3.980" width="1.040" height="1.040" fill="#b28d35" stroke="none" /><rect x="-0.020" y="2.980" width="1.040" height="1.040" fill="#f39f75" stroke="none" /><rect x="0.980" y="2.980" width="1.040" height="1.040" fill="#fdb4b5" stroke="none" /><rect x="1.980" y="2.980" width="1.040" height="1.040" fill="#f4a078" stroke="none" /><rect x="2.980" y="2.980" width="1.040" height="1.040" fill="#e2995b" stroke="none" /><rect x="3.980" y="2.980" width="1.040" height="1.040" fill="#fdb5b8" stroke="none" /><rect x="4.980" y="2.980" width="1.040" height="1.040" fill="#3d6c55" stroke="none" /><rect x="5.980" y="2.980" width="1.040" height="1.040" fill="#d7964f" stroke="none" /><rect x="6.980" y="2.980" width="1.040" height="1.040" fill="#707d3a" stroke="none" /><rect x="7.980" y="2.980" width="1.040" height="1.040" fill="#53754a" stroke="none" /><rect x="8.980" y="2.980" width="1.040" height="1.040" fill="#5f7843" stroke="none" /><rect x="-0.020" y="1.980" width="1.040" height="1.040" fill="#5b7746" stroke="none" /><rect x="0.980" y="1.980" width="1.040" height="1.040" fill="#3b6b55" stroke="none" /><rect x="1.980" y="1.980" width="1.040" height="1.040" fill="#c39139" stroke="none" /><rect x="2.980" y="1.980" width="1.040" height="1.040" fill="#687b3f" stroke="none" /><rect x="3.980" y="1.980" width="1.040" height="1.040" fill="#facaf5" stroke="none" /><rect x="4.980" y="1.980" width="1.040" height="1.040" fill="#da9752" stroke="none" /><rect x="5.980" y="1.980" width="1.040" height="1.040" fill="#1b5561" stroke="none" /><rect x="6.980" y="1.980" width="1.040" height="1.040" fill="#667a40" stroke="none" /><rect x="7.980" y="1.980" width="1.040" height="1.040" fill="#446f51" stroke="none" /><rect x="8.980" y="1.980" width="1.040" height="1.040" fill="#f7a891" stroke="none" /><rect x="-0.020" y="0.980" width="1.040" height="1.040" fill="#fdb8c1" stroke="none" /><rect x="0.980" y="0.980" width="1.040" height="1.040" fill="#fcbdce" stroke="none" /><rect x="1.980" y="0.980" width="1.040" height="1.040" fill="#d4954c" stroke="none" /><rect x="2.980" y="0.980" width="1.040" height="1.040" fill="#2a645d" stroke="none" /><rect x="3.980" y="0.980" width="1.040" height="1.040" fill="#246160" stroke="none" /><rect x="4.980" y="0.980" width="1.040" height="1.040" fill="#fdb3b3" stroke="none" /><rect x="5.980" y="0.980" width="1.040" height="1.040" fill="#948632" stroke="none" /><rect x="6.980" y="0.980" width="1.040" height="1.040" fill="#f8a994" stroke="none" /><rect x="7.980" y="0.980" width="1.040" height="1.040" fill="#ab8b34" stroke="none" /><rect x="8.980" y="0.980" width="1.040" height="1.040" fill="#f09d6b" stroke="none" /><rect x="-0.020" y="-0.020" width="1.040" height="1.040" fill="#908532" stroke="none" /><rect x="0.980" y="-0.020" width="1.040" height="1.040" fill="#f5a381" stroke="none" /><rect x="1.980" y="-0.020" width="1.040" height="1.040" fill="#a98b34" stroke="none" /><rect x="2.980" y="-0.020" width="1.040" height="1.040" fill="#777f37" stroke="none" /><rect x="3.980" y="-0.020" width="1.040" height="1.040" fill="#446f51" stroke="none" /><rect x="4.980" y="-0.020" width="1.040" height="1.040" fill="#0a305d" stroke="none" /><rect x="5.980" y="-0.020" width="1.040" height="1.040" fill="#51744b" stroke="none" /><rect x="6.980" y="-0.020" width="1.040" height="1.040" fill="#0b345e" stroke="none" /><rect x="7.980" y="-0.020" width="1.040" height="1.040" fill="#faccfa" stroke="none" /><rect x="8.980" y="-0.020" width="1.040" height="1.040" fill="#195160" stroke="none" /></g><text class="cf-text cf-label" text-anchor="middle" x="386.50" y="464.50">x-label [unit]</text><text class="cf-text cf-label" text-anchor="middle" transform="translate(301.00,379.50) rotate(-90)">y-label [unit]</text><text class="cf-text cf-cbarlabel" text-anchor="middle" x="386.50" y="476.50">Colorbar label [unit]</text><line class="cf-axis" x1="328.00" y1="493.00" x2="445.00" y2="493.00" /><rect x="328.00" y="485.00" width="3.26" height="8.00" fill="#031e5a" stroke="none" opacity="0.95" /><rect x="331.66" y="491.00" width="3.26" height="2.00" fill="#07295c" stroke="none" opacity="0.95" /><rect x="335.31" y="489.00" width="3.26" height="4.00" fill="#0b335d" stroke="none" opacity="0.95" /><rect x="338.97" y="492.20" width="3.26" height="0.80" fill="#0f3e5f" stroke="none" opacity="0.95" /><rect x="342.62" y="487.00" width="3.26" height="6.00" fill="#134760" stroke="none" opacity="0.95" /><rect x="346.28" y="485.00" width="3.26" height="8.00" fill="#174e60" stroke="none" opacity="0.95" /><rect x="349.94" y="491.00" width="3.26" height="2.00" fill="#1c5561" stroke="none" opacity="0.95" /><rect x="353.59" y="492.20" width="3.26" height="0.80" fill="#205c61" stroke="none" opacity="0.95" /><rect x="357.25" y="489.00" width="3.26" height="4.00" fill="#27625f" stroke="none" opacity="0.95" /><rect x="360.91" y="489.00" width="3.26" height="4.00" fill="#32675a" stroke="none" opacity="0.95" /><rect x="364.56" y="485.00" width="3.26" height="8.00" fill="#3d6c55" stroke="none" opacity="0.95" /><rect x="368.22" y="487.00" width="3.26" height="6.00" fill="#487150" stroke="none" opacity="0.95" /><rect x="371.88" y="483.00" width="3.26" height="10.00" fill="#54754a" stroke="none" opacity="0.95" /><rect x="375.53" y="485.00" width="3.26" height="8.00" fill="#617943" stroke="none" opacity="0.95" /><rect x="379.19" y="485.00" width="3.26" height="8.00" fill="#6e7c3c" stroke="none" opacity="0.95" /><rect x="382.84" y="487.00" width="3.26" height="6.00" fill="#7b8035" stroke="none" opacity="0.95" /><rect x="386.50" y="489.00" width="3.26" height="4.00" fill="#8a8432" stroke="none" opacity="0.95" /><rect x="390.16" y="487.00" width="3.26" height="6.00" fill="#998733" stroke="none" opacity="0.95" /><rect x="393.81" y="481.00" width="3.26" height="12.00" fill="#a98b34" stroke="none" opacity="0.95" /><rect x="397.47" y="481.00" width="3.26" height="12.00" fill="#b88e35" stroke="none" opacity="0.95" /><rect x="401.12" y="487.00" width="3.26" height="6.00" fill="#c6923d" stroke="none" opacity="0.95" /><rect x="404.78" y="489.00" width="3.26" height="4.00" fill="#d3954b" stroke="none" opacity="0.95" /><rect x="408.44" y="487.00" width="3.26" height="6.00" fill="#df9858" stroke="none" opacity="0.95" /><rect x="412.09" y="491.00" width="3.26" height="2.00" fill="#ec9b66" stroke="none" opacity="0.95" /><rect x="415.75" y="489.00" width="3.26" height="4.00" fill="#f3a076" stroke="none" opacity="0.95" /><rect x="419.41" y="485.00" width="3.26" height="8.00" fill="#f6a688" stroke="none" opacity="0.95" /><rect x="423.06" y="483.00" width="3.26" height="10.00" fill="#f9ab9b" stroke="none" opacity="0.95" /><rect x="426.72" y="487.00" width="3.26" height="6.00" fill="#fcb1ad" stroke="none" opacity="0.95" /><rect x="430.38" y="487.00" width="3.26" height="6.00" fill="#fdb7bf" stroke="none" opacity="0.95" /><rect x="434.03" y="481.00" width="3.26" height="12.00" fill="#fcbdd0" stroke="none" opacity="0.95" /><rect x="437.69" y="485.00" width="3.26" height="8.00" fill="#fbc3e1" stroke="none" opacity="0.95" /><rect x="441.34" y="483.00" width="3.26" height="10.00" fill="#fac9f2" stroke="none" opacity="0.95" /><line class="cf-tick" x1="328.00" y1="493.00" x2="328.00" y2="496.50" /><text class="cf-text cf-ticklabel" text-anchor="start" x="328.00" y="505.00">4.0e-4</text><line class="cf-tick" x1="386.50" y1="493.00" x2="386.50" y2="496.50" /><text class="cf-text cf-ticklabel" text-anchor="middle" x="386.50" y="505.00">0.49</text><line class="cf-tick" x1="445.00" y1="493.00" x2="445.00" y2="496.50" /><text class="cf-text cf-ticklabel" text-anchor="end" x="445.00" y="505.00">0.98</text></g></g></svg>