<svg xmlns="http://www.w3.org/2000/svg" width="380.00pt" height="395.00pt" viewBox="0 0 380.00 395.00" role="img" aria-label="cleanfig figure"><style>.cf-text{font-family:"IBM Plex Sans", "Source Sans 3", 'Arial', sans-serif;fill:#191c20;font-weight:400;} .cf-axis{stroke:#656d76;stroke-width:0.55;fill:none;stroke-linecap:square;} .cf-tick{stroke:#707881;stroke-width:0.45;} .cf-label{font-size:8.6px;font-weight:400;} .cf-ticklabel{font-size:7.2px;font-weight:400;fill:#494f57;} .cf-panel{font-size:11.2px;font-weight:700;} .cf-cbarlabel{font-size:7.8px;font-weight:400;} .cf-legendtext{font-size:7.2px;font-weight:400;fill:#494f57;}</style><rect x="0" y="0" width="380.00" height="395.00" fill="#ffffff" /><g transform="translate(-62.00,-22.00)"><g data-panel="0-0"><line class="cf-axis" x1="104.00" y1="334.00" x2="432.00" y2="334.00" /><line class="cf-axis" x1="100.00" y1="44.00" x2="100.00" y2="330.00" /><line class="cf-tick" x1="130.18" y1="334.00" x2="130.18" y2="338.50" /><text class="cf-text cf-ticklabel" text-anchor="middle" x="130.18" y="347.50">-30</text><line class="cf-tick" x1="281.09" y1="334.00" x2="281.09" y2="338.50" /><text class="cf-text cf-ticklabel" text-anchor="middle" x="281.09" y="347.50">-20</text><line class="cf-tick" x1="432.00" y1="334.00" x2="432.00" y2="338.50" /><text class="cf-text cf-ticklabel" text-anchor="middle" x="432.00" y="347.50">-10</text><line class="cf-tick" x1="95.50" y1="292.57" x2="100.00" y2="292.57" /><text class="cf-text cf-ticklabel" text-anchor="end" x="92.50" y="295.37">-20</text><line class="cf-tick" x1="95.50" y1="189.00" x2="100.00" y2="189.00" /><text class="cf-text cf-ticklabel" text-anchor="end" x="92.50" y="191.80">-15</text><line class="cf-tick" x1="95.50" y1="85.43" x2="100.00" y2="85.43" /><text class="cf-text cf-ticklabel" text-anchor="end" x="92.50" y="88.23">-10</text><circle cx="100.00" cy="229.48" r="3.00" fill="#011959" stroke="none" stroke-width="0.00" opacity="0.850" /><circle cx="102.79" cy="232.82" r="3.00" fill="#021c59" stroke="none" stroke-width="0.00" opacity="0.850" /><circle cx="105.58" cy="226.43" r="3.00" fill="#031f5a" stroke="none" stroke-width="0.00" opacity="0.850" /><circle cx="108.37" cy="225.00" r="3.00" fill="#04215a" stroke="none" stroke-width="0.00" opacity="0.850" /><circle cx="111.16" cy="233.16" r="3.00" fill="#05245b" stroke="none" stroke-width="0.00" opacity="0.850" /><circle cx="113.95" cy="230.31" r="3.00" fill="#06275b" stroke="none" stroke-width="0.00" opacity="0.850" /><circle cx="116.74" cy="225.04" r="3.00" fill="#072a5c" stroke="none" stroke-width="0.00" opacity="0.850" /><circle cx="119.53" cy="225.60" r="3.00" fill="#092d5c" stroke="none" stroke-width="0.00" opacity="0.850" /><circle cx="122.32" cy="223.85" r="3.00" fill="#0a305d" stroke="none" stroke-width="0.00" opacity="0.850" /><circle cx="125.11" cy="225.63" r="3.00" fill="#0b325d" stroke="none" stroke-width="0.00" opacity="0.850" /><circle cx="127.90" cy="219.44" r="3.00" fill="#0c355e" stroke="none" stroke-width="0.00" opacity="0.850" /><circle cx="130.69" cy="218.95" r="3.00" fill="#0d385e" stroke="none" stroke-width="0.00" opacity="0.850" /><circle cx="133.48" cy="220.37" r="3.00" fill="#0e3b5f" stroke="none" stroke-width="0.00" opacity="0.850" /><circle cx="136.27" cy="216.28" r="3.00" fill="#0f3e5f" stroke="none" stroke-width="0.00" opacity="0.850" /><circle cx="139.06" cy="217.55" r="3.00" fill="#104160" stroke="none" stroke-width="0.00" opacity="0.850" /><circle cx="141.85" cy="220.90" r="3.00" fill="#114360" stroke="none" stroke-width="0.00" opacity="0.850" /><circle cx="144.64" cy="216.32" r="3.00" fill="#124560" stroke="none" stroke-width="0.00" opacity="0.850" /><circle cx="147.43" cy="219.69" r="3.00" fill="#134760" stroke="none" stroke-width="0.00" opacity="0.850" /><circle cx="150.22" cy="213.24" r="3.00" fill="#154960" stroke="none" stroke-width="0.00" opacity="0.850" /><circle cx="153.01" cy="215.39" r="3.00" fill="#164b60" stroke="none" stroke-width="0.00" opacity="0.850" /><circle cx="155.80" cy="215.09" r="3.00" fill="#174d60" stroke="none" stroke-width="0.00" opacity="0.850" /><circle cx="158.59" cy="215.92" r="3.00" fill="#184f60" stroke="none" stroke-width="0.00" opacity="0.850" /><circle cx="161.38" cy="209.30" r="3.00" fill="#195160" stroke="none" stroke-width="0.00" opacity="0.850" /><circle cx="164.17" cy="212.89" r="3.00" fill="#1a5361" stroke="none" stroke-width="0.00" opacity="0.850" /><circle cx="166.96" cy="213.07" r="3.00" fill="#1b5561" stroke="none" stroke-width="0.00" opacity="0.850" /><circle cx="169.75" cy="212.17" r="3.00" fill="#1d5761" stroke="none" stroke-width="0.00" opacity="0.850" /><circle cx="172.54" cy="208.78" r="3.00" fill="#1e5961" stroke="none" stroke-width="0.00" opacity="0.850" /><circle cx="175.33" cy="208.66" r="3.00" fill="#1f5b61" stroke="none" stroke-width="0.00" opacity="0.850" /><circle cx="178.12" cy="207.90" r="3.00" fill="#205d61" stroke="none" stroke-width="0.00" opacity="0.850" /><circle cx="180.91" cy="207.24" r="3.00" fill="#215f61" stroke="none" stroke-width="0.00" opacity="0.850" /><circle cx="183.70" cy="201.34" r="3.00" fill="#236061" stroke="none" stroke-width="0.00" opacity="0.850" /><circle cx="186.49" cy="208.69" r="3.00" fill="#26625f" stroke="none" stroke-width="0.00" opacity="0.850" /><circle cx="189.28" cy="208.46" r="3.00" fill="#29635e" stroke="none" stroke-width="0.00" opacity="0.850" /><circle cx="192.07" cy="208.86" r="3.00" fill="#2b645d" stroke="none" stroke-width="0.00" opacity="0.850" /><circle cx="194.86" cy="203.90" r="3.00" fill="#2e655b" stroke="none" stroke-width="0.00" opacity="0.850" /><circle cx="197.65" cy="201.81" r="3.00" fill="#31675a" stroke="none" stroke-width="0.00" opacity="0.850" /><circle cx="200.44" cy="205.19" r="3.00" fill="#346859" stroke="none" stroke-width="0.00" opacity="0.850" /><circle cx="203.23" cy="206.98" r="3.00" fill="#376957" stroke="none" stroke-width="0.00" opacity="0.850" /><circle cx="206.02" cy="206.48" r="3.00" fill="#3a6b56" stroke="none" stroke-width="0.00" opacity="0.850" /><circle cx="208.81" cy="201.47" r="3.00" fill="#3d6c55" stroke="none" stroke-width="0.00" opacity="0.850" /><circle cx="211.60" cy="200.78" r="3.00" fill="#406d53" stroke="none" stroke-width="0.00" opacity="0.850" /><circle cx="214.39" cy="201.01" r="3.00" fill="#436e52" stroke="none" stroke-width="0.00" opacity="0.850" /><circle cx="217.18" cy="204.40" r="3.00" fill="#457051" stroke="none" stroke-width="0.00" opacity="0.850" /><circle cx="219.97" cy="201.27" r="3.00" fill="#48714f" stroke="none" stroke-width="0.00" opacity="0.850" /><circle cx="222.76" cy="201.30" r="3.00" fill="#4b724e" stroke="none" stroke-width="0.00" opacity="0.850" /><circle cx="225.55" cy="200.68" r="3.00" fill="#4e734c" stroke="none" stroke-width="0.00" opacity="0.850" /><circle cx="228.34" cy="198.36" r="3.00" fill="#52744a" stroke="none" stroke-width="0.00" opacity="0.850" /><circle cx="231.13" cy="200.11" r="3.00" fill="#557549" stroke="none" stroke-width="0.00" opacity="0.850" /><circle cx="233.92" cy="198.46" r="3.00" fill="#597647" stroke="none" stroke-width="0.00" opacity="0.850" /><circle cx="236.71" cy="200.14" r="3.00" fill="#5d7745" stroke="none" stroke-width="0.00" opacity="0.850" /><circle cx="239.50" cy="199.25" r="3.00" fill="#607843" stroke="none" stroke-width="0.00" opacity="0.850" /><circle cx="242.29" cy="198.01" r="3.00" fill="#647941" stroke="none" stroke-width="0.00" opacity="0.850" /><circle cx="245.08" cy="204.35" r="3.00" fill="#677a3f" stroke="none" stroke-width="0.00" opacity="0.850" /><circle cx="247.87" cy="200.68" r="3.00" fill="#6b7b3d" stroke="none" stroke-width="0.00" opacity="0.850" /><circle cx="250.66" cy="201.04" r="3.00" fill="#6e7c3b" stroke="none" stroke-width="0.00" opacity="0.850" /><circle cx="253.45" cy="201.47" r="3.00" fill="#727d39" stroke="none" stroke-width="0.00" opacity="0.850" /><circle cx="256.24" cy="200.28" r="3.00" fill="#767e38" stroke="none" stroke-width="0.00" opacity="0.850" /><circle cx="259.03" cy="194.73" r="3.00" fill="#797f36" stroke="none" stroke-width="0.00" opacity="0.850" /><circle cx="261.82" cy="202.05" r="3.00" fill="#7d8034" stroke="none" stroke-width="0.00" opacity="0.850" /><circle cx="264.61" cy="196.35" r="3.00" fill="#808132" stroke="none" stroke-width="0.00" opacity="0.850" /><circle cx="267.39" cy="204.61" r="3.00" fill="#848231" stroke="none" stroke-width="0.00" opacity="0.850" /><circle cx="270.18" cy="200.47" r="3.00" fill="#888332" stroke="none" stroke-width="0.00" opacity="0.850" /><circle cx="272.97" cy="199.00" r="3.00" fill="#8c8432" stroke="none" stroke-width="0.00" opacity="0.850" /><circle cx="275.76" cy="197.77" r="3.00" fill="#918532" stroke="none" stroke-width="0.00" opacity="0.850" /><circle cx="278.55" cy="197.50" r="3.00" fill="#958633" stroke="none" stroke-width="0.00" opacity="0.850" /><circle cx="281.34" cy="197.38" r="3.00" fill="#998733" stroke="none" stroke-width="0.00" opacity="0.850" /><circle cx="284.13" cy="201.08" r="3.00" fill="#9d8833" stroke="none" stroke-width="0.00" opacity="0.850" /><circle cx="286.92" cy="201.62" r="3.00" fill="#a18934" stroke="none" stroke-width="0.00" opacity="0.850" /><circle cx="289.71" cy="197.72" r="3.00" fill="#a58a34" stroke="none" stroke-width="0.00" opacity="0.850" /><circle cx="292.50" cy="201.20" r="3.00" fill="#aa8b34" stroke="none" stroke-width="0.00" opacity="0.850" /><circle cx="295.29" cy="204.82" r="3.00" fill="#ae8c35" stroke="none" stroke-width="0.00" opacity="0.850" /><circle cx="298.08" cy="204.64" r="3.00" fill="#b28d35" stroke="none" stroke-width="0.00" opacity="0.850" /><circle cx="300.87" cy="204.26" r="3.00" fill="#b68e35" stroke="none" stroke-width="0.00" opacity="0.850" /><circle cx="303.66" cy="200.17" r="3.00" fill="#ba8f36" stroke="none" stroke-width="0.00" opacity="0.850" /><circle cx="306.45" cy="201.60" r="3.00" fill="#be9036" stroke="none" stroke-width="0.00" opacity="0.850" /><circle cx="309.24" cy="200.25" r="3.00" fill="#c29138" stroke="none" stroke-width="0.00" opacity="0.850" /><circle cx="312.03" cy="204.09" r="3.00" fill="#c5913c" stroke="none" stroke-width="0.00" opacity="0.850" /><circle cx="314.82" cy="202.67" r="3.00" fill="#c99240" stroke="none" stroke-width="0.00" opacity="0.850" /><circle cx="317.61" cy="201.62" r="3.00" fill="#cc9343" stroke="none" stroke-width="0.00" opacity="0.850" /><circle cx="320.40" cy="204.96" r="3.00" fill="#d09447" stroke="none" stroke-width="0.00" opacity="0.850" /><circle cx="323.19" cy="203.03" r="3.00" fill="#d3954b" stroke="none" stroke-width="0.00" opacity="0.850" /><circle cx="325.98" cy="206.97" r="3.00" fill="#d6964e" stroke="none" stroke-width="0.00" opacity="0.850" /><circle cx="328.77" cy="206.53" r="3.00" fill="#da9752" stroke="none" stroke-width="0.00" opacity="0.850" /><circle cx="331.56" cy="207.09" r="3.00" fill="#dd9856" stroke="none" stroke-width="0.00" opacity="0.850" /><circle cx="334.35" cy="210.14" r="3.00" fill="#e0985a" stroke="none" stroke-width="0.00" opacity="0.850" /><circle cx="337.14" cy="205.45" r="3.00" fill="#e4995d" stroke="none" stroke-width="0.00" opacity="0.850" /><circle cx="339.93" cy="208.98" r="3.00" fill="#e79a61" stroke="none" stroke-width="0.00" opacity="0.850" /><circle cx="342.72" cy="208.06" r="3.00" fill="#ea9b65" stroke="none" stroke-width="0.00" opacity="0.850" /><circle cx="345.51" cy="207.19" r="3.00" fill="#ee9c68" stroke="none" stroke-width="0.00" opacity="0.850" /><circle cx="348.30" cy="207.90" r="3.00" fill="#f19d6c" stroke="none" stroke-width="0.00" opacity="0.850" /><circle cx="351.09" cy="207.84" r="3.00" fill="#f39e71" stroke="none" stroke-width="0.00" opacity="0.850" /><circle cx="353.88" cy="210.85" r="3.00" fill="#f3a076" stroke="none" stroke-width="0.00" opacity="0.850" /><circle cx="356.67" cy="212.51" r="3.00" fill="#f4a17a" stroke="none" stroke-width="0.00" opacity="0.850" /><circle cx="359.46" cy="212.10" r="3.00" fill="#f5a37f" stroke="none" stroke-width="0.00" opacity="0.850" /><circle cx="362.25" cy="217.77" r="3.00" fill="#f6a484" stroke="none" stroke-width="0.00" opacity="0.850" /><circle cx="365.04" cy="217.72" r="3.00" fill="#f6a689" stroke="none" stroke-width="0.00" opacity="0.850" /><circle cx="367.83" cy="218.03" r="3.00" fill="#f7a78e" stroke="none" stroke-width="0.00" opacity="0.850" /><circle cx="370.62" cy="217.73" r="3.00" fill="#f8a993" stroke="none" stroke-width="0.00" opacity="0.850" /><circle cx="373.41" cy="214.12" r="3.00" fill="#f8ab98" stroke="none" stroke-width="0.00" opacity="0.850" /><circle cx="376.20" cy="218.91" r="3.00" fill="#f9ac9d" stroke="none" stroke-width="0.00" opacity="0.850" /><circle cx="378.99" cy="218.02" r="3.00" fill="#faaea2" stroke="none" stroke-width="0.00" opacity="0.850" /><circle cx="381.78" cy="213.56" r="3.00" fill="#fbafa7" stroke="none" stroke-width="0.00" opacity="0.850" /><circle cx="384.57" cy="219.47" r="3.00" fill="#fbb1ac" stroke="none" stroke-width="0.00" opacity="0.850" /><circle cx="387.36" cy="216.85" r="3.00" fill="#fcb2b0" stroke="none" stroke-width="0.00" opacity="0.850" /><circle cx="390.15" cy="222.82" r="3.00" fill="#fdb4b5" stroke="none" stroke-width="0.00" opacity="0.850" /><circle cx="392.94" cy="221.35" r="3.00" fill="#fdb5ba" stroke="none" stroke-width="0.00" opacity="0.850" /><circle cx="395.73" cy="224.46" r="3.00" fill="#fdb7bf" stroke="none" stroke-width="0.00" opacity="0.850" /><circle cx="398.52" cy="223.37" r="3.00" fill="#fcb9c3" stroke="none" stroke-width="0.00" opacity="0.850" /><circle cx="401.31" cy="220.51" r="3.00" fill="#fcbac8" stroke="none" stroke-width="0.00" opacity="0.850" /><circle cx="404.10" cy="229.30" r="3.00" fill="#fcbccc" stroke="none" stroke-width="0.00" opacity="0.850" /><circle cx="406.89" cy="223.41" r="3.00" fill="#fcbdd1" stroke="none" stroke-width="0.00" opacity="0.850" /><circle cx="409.68" cy="224.84" r="3.00" fill="#fcbfd5" stroke="none" stroke-width="0.00" opacity="0.850" /><circle cx="412.47" cy="228.25" r="3.00" fill="#fbc1da" stroke="none" stroke-width="0.00" opacity="0.850" /><circle cx="415.26" cy="231.73" r="3.00" fill="#fbc2df" stroke="none" stroke-width="0.00" opacity="0.850" /><circle cx="418.05" cy="227.84" r="3.00" fill="#fbc4e3" stroke="none" stroke-width="0.00" opacity="0.850" /><circle cx="420.84" cy="230.55" r="3.00" fill="#fbc6e8" stroke="none" stroke-width="0.00" opacity="0.850" /><circle cx="423.63" cy="229.01" r="3.00" fill="#fbc7ec" stroke="none" stroke-width="0.00" opacity="0.850" /><circle cx="426.42" cy="230.50" r="3.00" fill="#fac9f1" stroke="none" stroke-width="0.00" opacity="0.850" /><circle cx="429.21" cy="226.43" r="3.00" fill="#facaf5" stroke="none" stroke-width="0.00" opacity="0.850" /><circle cx="432.00" cy="232.99" r="3.00" fill="#faccfa" stroke="none" stroke-width="0.00" opacity="0.850" /><text class="cf-text cf-label" text-anchor="middle" x="266.00" y="360.50">Inc. angle [<tspan baseline-shift="super" font-size="70%">o</tspan>]</text><text class="cf-text cf-label" text-anchor="middle" transform="translate(73.00,189.00) rotate(-90)">σ<tspan baseline-shift="super" font-size="70%">0</tspan> [dB]</text><text class="cf-text cf-cbarlabel" text-anchor="middle" x="175.00" y="372.50">h<tspan baseline-shift="sub" font-size="70%">r</tspan>ms [cm]</text><line class="cf-axis" x1="106.00" y1="389.00" x2="244.00" y2="389.00" /><rect x="106.00" y="377.00" width="3.91" height="12.00" fill="#031e5a" stroke="none" opacity="0.95" /><rect x="110.31" y="377.00" width="3.91" height="12.00" fill="#07295c" stroke="none" opacity="0.95" /><rect x="114.62" y="377.00" width="3.91" height="12.00" fill="#0b335d" stroke="none" opacity="0.95" /><rect x="118.94" y="380.00" width="3.91" height="9.00" fill="#0f3e5f" stroke="none" opacity="0.95" /><rect x="123.25" y="377.00" width="3.91" height="12.00" fill="#134760" stroke="none" opacity="0.95" /><rect x="127.56" y="377.00" width="3.91" height="12.00" fill="#174e60" stroke="none" opacity="0.95" /><rect x="131.88" y="377.00" width="3.91" height="12.00" fill="#1c5561" stroke="none" opacity="0.95" /><rect x="136.19" y="380.00" width="3.91" height="9.00" fill="#205c61" stroke="none" opacity="0.95" /><rect x="140.50" y="377.00" width="3.91" height="12.00" fill="#27625f" stroke="none" opacity="0.95" /><rect x="144.81" y="377.00" width="3.91" height="12.00" fill="#32675a" stroke="none" opacity="0.95" /><rect x="149.12" y="380.00" width="3.91" height="9.00" fill="#3d6c55" stroke="none" opacity="0.95" /><rect x="153.44" y="377.00" width="3.91" height="12.00" fill="#487150" stroke="none" opacity="0.95" /><rect x="157.75" y="377.00" width="3.91" height="12.00" fill="#54754a" stroke="none" opacity="0.95" /><rect x="162.06" y="377.00" width="3.91" height="12.00" fill="#617943" stroke="none" opacity="0.95" /><rect x="166.38" y="380.00" width="3.91" height="9.00" fill="#6e7c3c" stroke="none" opacity="0.95" /><rect x="170.69" y="377.00" width="3.91" height="12.00" fill="#7b8035" stroke="none" opacity="0.95" /><rect x="175.00" y="377.00" width="3.91" height="12.00" fill="#8a8432" stroke="none" opacity="0.95" /><rect x="179.31" y="380.00" width="3.91" height="9.00" fill="#998733" stroke="none" opacity="0.95" /><rect x="183.62" y="377.00" width="3.91" height="12.00" fill="#a98b34" stroke="none" opacity="0.95" /><rect x="187.94" y="377.00" width="3.91" height="12.00" fill="#b88e35" stroke="none" opacity="0.95" /><rect x="192.25" y="377.00" width="3.91" height="12.00" fill="#c6923d" stroke="none" opacity="0.95" /><rect x="196.56" y="380.00" width="3.91" height="9.00" fill="#d3954b" stroke="none" opacity="0.95" /><rect x="200.88" y="377.00" width="3.91" height="12.00" fill="#df9858" stroke="none" opacity="0.95" /><rect x="205.19" y="377.00" width="3.91" height="12.00" fill="#ec9b66" stroke="none" opacity="0.95" /><rect x="209.50" y="380.00" width="3.91" height="9.00" fill="#f3a076" stroke="none" opacity="0.95" /><rect x="213.81" y="377.00" width="3.91" height="12.00" fill="#f6a688" stroke="none" opacity="0.95" /><rect x="218.12" y="377.00" width="3.91" height="12.00" fill="#f9ab9b" stroke="none" opacity="0.95" /><rect x="222.44" y="377.00" width="3.91" height="12.00" fill="#fcb1ad" stroke="none" opacity="0.95" /><rect x="226.75" y="380.00" width="3.91" height="9.00" fill="#fdb7bf" stroke="none" opacity="0.95" /><rect x="231.06" y="377.00" width="3.91" height="12.00" fill="#fcbdd0" stroke="none" opacity="0.95" /><rect x="235.38" y="377.00" width="3.91" height="12.00" fill="#fbc3e1" stroke="none" opacity="0.95" /><rect x="239.69" y="377.00" width="3.91" height="12.00" fill="#fac9f2" stroke="none" opacity="0.95" /><line class="cf-tick" x1="106.00" y1="389.00" x2="106.00" y2="392.50" /><text class="cf-text cf-ticklabel" text-anchor="start" x="106.00" y="401.00">2</text><line class="cf-tick" x1="175.00" y1="389.00" x2="175.00" y2="392.50" /><text class="cf-text cf-ticklabel" text-anchor="middle" x="175.00" y="401.00">21</text><line class="cf-tick" x1="244.00" y1="389.00" x2="244.00" y2="392.50" /><text class="cf-text cf-ticklabel" text-anchor="end" x="244.00" y="401.00">40</text></g></g></svg>