<?xml version="1.0" encoding="UTF-8" standalone="no"?>
<!DOCTYPE svg PUBLIC "-//W3C//DTD SVG 1.1//EN" "http://www.w3.org/Graphics/SVG/1.1/DTD/svg11.dtd">
<svg width="100%" height="100%" viewBox="0 0 205 201" version="1.1" xmlns="http://www.w3.org/2000/svg" xmlns:xlink="http://www.w3.org/1999/xlink" xml:space="preserve" xmlns:serif="http://www.serif.com/" style="fill-rule:evenodd;clip-rule:evenodd;">
    <g transform="matrix(-1,0,0,1,296.026,5.7742)">
        <ellipse cx="148.013" cy="97.613" rx="6.485" ry="7.034" style="fill:rgb(162,48,125);fill-opacity:0.55;"/>
    </g>
    <g transform="matrix(-1,0,0,1,197.69,-5.4492)">
        <ellipse cx="98.845" cy="103.225" rx="6.485" ry="7.034" style="fill:rgb(139,40,128);fill-opacity:0.55;"/>
    </g>
    <g transform="matrix(-1,0,0,1,207.212,-5.4492)">
        <ellipse cx="103.606" cy="103.225" rx="6.485" ry="7.034" style="fill:rgb(131,38,129);fill-opacity:0.55;"/>
    </g>
    <g transform="matrix(-1,0,0,1,176.998,-5.4492)">
        <ellipse cx="88.499" cy="103.225" rx="6.485" ry="7.034" style="fill:rgb(216,73,106);fill-opacity:0.55;"/>
    </g>
    <g transform="matrix(-1,0,0,1,173.608,-5.4492)">
        <ellipse cx="86.804" cy="103.225" rx="6.485" ry="7.034" style="fill:rgb(241,167,146);fill-opacity:0.55;"/>
    </g>
    <g transform="matrix(-1,0,0,1,187.404,-5.4492)">
        <ellipse cx="93.702" cy="103.225" rx="6.485" ry="7.034" style="fill:rgb(234,119,121);fill-opacity:0.55;"/>
    </g>
    <g transform="matrix(-1,0,0,1,182.716,-5.4492)">
        <ellipse cx="91.358" cy="103.225" rx="6.485" ry="7.034" style="fill:rgb(249,229,178);fill-opacity:0.55;"/>
    </g>
    <g transform="matrix(-1,0,0,1,212.754,-5.4492)">
        <ellipse cx="106.377" cy="103.225" rx="6.485" ry="7.034" style="fill:rgb(145,42,127);fill-opacity:0.55;"/>
    </g>
    <g transform="matrix(-1,0,0,1,178.236,-5.4492)">
        <ellipse cx="89.118" cy="103.225" rx="6.485" ry="7.034" style="fill:rgb(252,253,191);fill-opacity:0.55;"/>
    </g>
    <g transform="matrix(-1,0,0,1,275.952,-6.6317)">
        <ellipse cx="137.976" cy="103.816" rx="6.485" ry="7.034" style="fill:rgb(168,50,124);fill-opacity:0.55;"/>
    </g>
    <g transform="matrix(-1,0,0,1,366.358,118.481)">
        <ellipse cx="183.179" cy="41.259" rx="6.485" ry="7.034" style="fill:rgb(117,32,128);fill-opacity:0.55;"/>
    </g>
    <g transform="matrix(-1,0,0,1,366.358,118.481)">
        <ellipse cx="183.179" cy="41.259" rx="6.485" ry="7.034" style="fill:rgb(145,42,127);fill-opacity:0.55;"/>
    </g>
    <g transform="matrix(-1,0,0,1,319.902,118.481)">
        <ellipse cx="159.951" cy="41.259" rx="6.485" ry="7.034" style="fill:rgb(168,50,124);fill-opacity:0.55;"/>
    </g>
    <g transform="matrix(-1,0,0,1,348.878,118.481)">
        <ellipse cx="174.439" cy="41.259" rx="6.485" ry="7.034" style="fill:rgb(153,45,126);fill-opacity:0.55;"/>
    </g>
    <g transform="matrix(-1,0,0,1,396.63,118.481)">
        <ellipse cx="198.315" cy="41.259" rx="6.485" ry="7.034" style="fill:rgb(130,37,129);fill-opacity:0.55;"/>
    </g>
    <g transform="matrix(-1,0,0,1,207.212,21.569)">
        <ellipse cx="103.606" cy="89.715" rx="6.485" ry="7.034" style="fill:rgb(51,17,93);fill-opacity:0.55;"/>
    </g>
    <g transform="matrix(-1,0,0,1,260.682,23.903)">
        <ellipse cx="130.341" cy="88.548" rx="6.485" ry="7.034" style="fill:rgb(0,0,4);fill-opacity:0.55;"/>
    </g>
    <g transform="matrix(-1,0,0,1,154.36,-57.406)">
        <ellipse cx="77.18" cy="129.203" rx="6.485" ry="7.034" style="fill:rgb(121,34,128);fill-opacity:0.55;"/>
    </g>
    <g transform="matrix(-1,0,0,1,297.47,46.5084)">
        <ellipse cx="148.735" cy="77.246" rx="6.485" ry="7.034" style="fill:rgb(221,75,104);fill-opacity:0.55;"/>
    </g>
    <g transform="matrix(-1,0,0,1,266.637,-32.083)">
        <ellipse cx="133.319" cy="116.542" rx="6.484" ry="7.034" style="fill:rgb(166,49,124);fill-opacity:0.55;"/>
    </g>
    <g transform="matrix(-1,0,0,1,255.79,52.2957)">
        <ellipse cx="127.895" cy="74.352" rx="6.485" ry="7.034" style="fill:rgb(176,52,123);fill-opacity:0.55;"/>
    </g>
    <g transform="matrix(-1,0,0,1,320.521,61.0565)">
        <ellipse cx="160.26" cy="69.972" rx="6.484" ry="7.034" style="fill:rgb(210,70,109);fill-opacity:0.55;"/>
    </g>
    <g transform="matrix(-1,0,0,1,330.336,38.1314)">
        <ellipse cx="165.168" cy="81.434" rx="6.485" ry="7.034" style="fill:rgb(242,177,151);fill-opacity:0.55;"/>
    </g>
    <g transform="matrix(-1,0,0,1,235.186,-23.354)">
        <ellipse cx="117.593" cy="112.177" rx="6.485" ry="7.034" style="fill:rgb(183,55,121);fill-opacity:0.55;"/>
    </g>
    <g transform="matrix(-1,0,0,1,307.816,27.1964)">
        <ellipse cx="153.908" cy="86.902" rx="6.485" ry="7.034" style="fill:rgb(153,45,126);fill-opacity:0.55;"/>
    </g>
    <g transform="matrix(-1,0,0,1,352.71,26.2691)">
        <ellipse cx="176.355" cy="87.365" rx="6.485" ry="7.034" style="fill:rgb(147,43,127);fill-opacity:0.55;"/>
    </g>
    <g transform="matrix(-1,0,0,1,344.426,26.2691)">
        <ellipse cx="172.213" cy="87.365" rx="6.485" ry="7.034" style="fill:rgb(176,52,123);fill-opacity:0.55;"/>
    </g>
    <g transform="matrix(-1,0,0,1,287.3,3.792)">
        <ellipse cx="143.65" cy="98.604" rx="6.485" ry="7.034" style="fill:rgb(154,45,126);fill-opacity:0.55;"/>
    </g>
    <g transform="matrix(-1,0,0,1,71.0874,-35.472)">
        <ellipse cx="35.544" cy="118.236" rx="6.485" ry="7.034" style="fill:rgb(58,17,100);fill-opacity:0.55;"/>
    </g>
    <g transform="matrix(-1,0,0,1,211.044,-90.307)">
        <ellipse cx="105.522" cy="145.654" rx="6.485" ry="7.035" style="fill:rgb(105,28,126);fill-opacity:0.55;"/>
    </g>
    <g transform="matrix(-1,0,0,1,145.634,45.3574)">
        <ellipse cx="72.817" cy="77.821" rx="6.485" ry="7.034" style="fill:rgb(32,16,72);fill-opacity:0.55;"/>
    </g>
    <g transform="matrix(-1,0,0,1,248.096,-4.1057)">
        <ellipse cx="124.048" cy="102.553" rx="6.485" ry="7.034" style="fill:rgb(140,40,128);fill-opacity:0.55;"/>
    </g>
    <g transform="matrix(-1,0,0,1,285.826,-2.5714)">
        <ellipse cx="142.913" cy="101.786" rx="6.485" ry="7.034" style="fill:rgb(89,22,124);fill-opacity:0.55;"/>
    </g>
    <g transform="matrix(-1,0,0,1,230.44,-65.304)">
        <ellipse cx="115.22" cy="133.152" rx="6.485" ry="7.034" style="fill:rgb(243,184,155);fill-opacity:0.55;"/>
    </g>
    <g transform="matrix(-1,0,0,1,200.196,-70.579)">
        <ellipse cx="100.098" cy="135.79" rx="6.485" ry="7.035" style="fill:rgb(206,68,111);fill-opacity:0.55;"/>
    </g>
    <g transform="matrix(-1,0,0,1,235.186,1.8408)">
        <ellipse cx="117.593" cy="99.58" rx="6.485" ry="7.034" style="fill:rgb(142,41,127);fill-opacity:0.55;"/>
    </g>
    <g transform="matrix(-1,0,0,1,244.794,9.8665)">
        <ellipse cx="122.397" cy="95.567" rx="6.485" ry="7.034" style="fill:rgb(198,63,114);fill-opacity:0.55;"/>
    </g>
    <g transform="matrix(-1,0,0,1,281.612,-13.538)">
        <ellipse cx="140.806" cy="107.269" rx="6.485" ry="7.034" style="fill:rgb(116,32,127);fill-opacity:0.55;"/>
    </g>
    <g transform="matrix(-1,0,0,1,332.341,72.3432)">
        <ellipse cx="166.171" cy="64.328" rx="6.484" ry="7.034" style="fill:rgb(205,67,111);fill-opacity:0.55;"/>
    </g>
    <g transform="matrix(-1,0,0,1,160.904,-80.363)">
        <ellipse cx="80.452" cy="140.681" rx="6.485" ry="7.034" style="fill:rgb(65,17,108);fill-opacity:0.55;"/>
    </g>
    <g transform="matrix(-1,0,0,1,280.314,95.3323)">
        <ellipse cx="140.157" cy="52.834" rx="6.485" ry="7.034" style="fill:rgb(73,18,117);fill-opacity:0.55;"/>
    </g>
    <g transform="matrix(-1,0,0,1,170.542,31.0972)">
        <ellipse cx="85.271" cy="84.951" rx="6.485" ry="7.034" style="fill:rgb(58,17,100);fill-opacity:0.55;"/>
    </g>
    <g transform="matrix(0,1,1,0,49.081,-45.945)">
        <path d="M146.774,98.932L149.252,98.932" style="fill:none;fill-rule:nonzero;stroke:rgb(97,97,97);stroke-opacity:0.22;stroke-width:0.38px;"/>
    </g>
    <g transform="matrix(0,-1,-1,0,206.538,192.153)">
        <path d="M79.973,107.693L117.718,107.693" style="fill:none;fill-rule:nonzero;stroke:rgb(97,97,97);stroke-opacity:0.22;stroke-width:0.38px;"/>
    </g>
    <g transform="matrix(0,-1,-1,0,211.299,196.913)">
        <path d="M84.734,107.693L122.478,107.693" style="fill:none;fill-rule:nonzero;stroke:rgb(97,97,97);stroke-opacity:0.22;stroke-width:0.38px;"/>
    </g>
    <g transform="matrix(0,-1,-1,0,196.192,181.806)">
        <path d="M69.627,107.693L107.371,107.693" style="fill:none;fill-rule:nonzero;stroke:rgb(97,97,97);stroke-opacity:0.22;stroke-width:0.38px;"/>
    </g>
    <g transform="matrix(0,-1,-1,0,194.497,180.111)">
        <path d="M67.932,107.693L105.676,107.693" style="fill:none;fill-rule:nonzero;stroke:rgb(97,97,97);stroke-opacity:0.22;stroke-width:0.38px;"/>
    </g>
    <g transform="matrix(0,-1,-1,0,201.394,187.009)">
        <path d="M74.829,107.693L112.574,107.693" style="fill:none;fill-rule:nonzero;stroke:rgb(97,97,97);stroke-opacity:0.22;stroke-width:0.38px;"/>
    </g>
    <g transform="matrix(0,-1,-1,0,199.051,184.666)">
        <path d="M72.486,107.693L110.231,107.693" style="fill:none;fill-rule:nonzero;stroke:rgb(97,97,97);stroke-opacity:0.22;stroke-width:0.38px;"/>
    </g>
    <g transform="matrix(0,-1,-1,0,214.07,199.684)">
        <path d="M87.505,107.693L125.249,107.693" style="fill:none;fill-rule:nonzero;stroke:rgb(97,97,97);stroke-opacity:0.22;stroke-width:0.38px;"/>
    </g>
    <g transform="matrix(0,-1,-1,0,196.81,182.425)">
        <path d="M70.246,107.693L107.99,107.693" style="fill:none;fill-rule:nonzero;stroke:rgb(97,97,97);stroke-opacity:0.22;stroke-width:0.38px;"/>
    </g>
    <g transform="matrix(0,-1,-1,0,249.825,227.127)">
        <path d="M113.028,111.849L162.924,111.849" style="fill:none;fill-rule:nonzero;stroke:rgb(97,97,97);stroke-opacity:0.22;stroke-width:0.38px;"/>
    </g>
    <g transform="matrix(0,-1,-1,0,224.606,342.752)">
        <path d="M181.892,41.427L184.466,41.427" style="fill:none;fill-rule:nonzero;stroke:rgb(97,97,97);stroke-opacity:0.22;stroke-width:0.38px;"/>
    </g>
    <g transform="matrix(0,-1,-1,0,224.606,342.752)">
        <path d="M181.892,41.427L184.466,41.427" style="fill:none;fill-rule:nonzero;stroke:rgb(97,97,97);stroke-opacity:0.22;stroke-width:0.38px;"/>
    </g>
    <g transform="matrix(0,-1,-1,0,201.378,319.524)">
        <path d="M158.664,41.427L161.238,41.427" style="fill:none;fill-rule:nonzero;stroke:rgb(97,97,97);stroke-opacity:0.22;stroke-width:0.38px;"/>
    </g>
    <g transform="matrix(0,-1,-1,0,215.866,334.012)">
        <path d="M173.152,41.427L175.726,41.427" style="fill:none;fill-rule:nonzero;stroke:rgb(97,97,97);stroke-opacity:0.22;stroke-width:0.38px;"/>
    </g>
    <g transform="matrix(0,-1,-1,0,239.742,357.888)">
        <path d="M197.028,41.427L199.602,41.427" style="fill:none;fill-rule:nonzero;stroke:rgb(97,97,97);stroke-opacity:0.22;stroke-width:0.38px;"/>
    </g>
    <g transform="matrix(0,-1,-1,0,193.961,214.251)">
        <path d="M90.737,90.355L116.475,90.355" style="fill:none;fill-rule:nonzero;stroke:rgb(97,97,97);stroke-opacity:0.22;stroke-width:0.38px;"/>
    </g>
    <g transform="matrix(0,-1,-1,0,219.121,242.561)">
        <path d="M122.819,88.78L137.863,88.78" style="fill:none;fill-rule:nonzero;stroke:rgb(97,97,97);stroke-opacity:0.22;stroke-width:0.38px;"/>
    </g>
    <g transform="matrix(0,-1,-1,0,224.902,273.568)">
        <path d="M143.036,76.167L154.434,76.167" style="fill:none;fill-rule:nonzero;stroke:rgb(97,97,97);stroke-opacity:0.22;stroke-width:0.38px;"/>
    </g>
    <g transform="matrix(0,-1,-1,0,247.95,219.688)">
        <path d="M127.332,114.631L139.306,114.631" style="fill:none;fill-rule:nonzero;stroke:rgb(97,97,97);stroke-opacity:0.22;stroke-width:0.38px;"/>
    </g>
    <g transform="matrix(0,-1,-1,0,211.415,245.375)">
        <path d="M105.713,83.52L150.077,83.52" style="fill:none;fill-rule:nonzero;stroke:rgb(97,97,97);stroke-opacity:0.22;stroke-width:0.38px;"/>
    </g>
    <g transform="matrix(0,-1,-1,0,228.777,292.743)">
        <path d="M145.648,68.517L174.872,68.517" style="fill:none;fill-rule:nonzero;stroke:rgb(97,97,97);stroke-opacity:0.22;stroke-width:0.38px;"/>
    </g>
    <g transform="matrix(0,-1,-1,0,246.674,284.662)">
        <path d="M161.947,81.506L168.389,81.506" style="fill:none;fill-rule:nonzero;stroke:rgb(97,97,97);stroke-opacity:0.22;stroke-width:0.38px;"/>
    </g>
    <g transform="matrix(0,-1,-1,0,230.106,206.08)">
        <path d="M107.953,112.513L127.233,112.513" style="fill:none;fill-rule:nonzero;stroke:rgb(97,97,97);stroke-opacity:0.22;stroke-width:0.38px;"/>
    </g>
    <g transform="matrix(0,-1,-1,0,242.824,265.992)">
        <path d="M142.142,88.916L165.674,88.916" style="fill:none;fill-rule:nonzero;stroke:rgb(97,97,97);stroke-opacity:0.22;stroke-width:0.38px;"/>
    </g>
    <g transform="matrix(0,-1,-1,0,315.134,238.576)">
        <path d="M114.134,138.779L238.576,138.779" style="fill:none;fill-rule:nonzero;stroke:rgb(97,97,97);stroke-opacity:0.22;stroke-width:0.38px;"/>
    </g>
    <g transform="matrix(0,-1,-1,0,292.719,252.707)">
        <path d="M128.265,120.506L216.161,120.506" style="fill:none;fill-rule:nonzero;stroke:rgb(97,97,97);stroke-opacity:0.22;stroke-width:0.38px;"/>
    </g>
    <g transform="matrix(0,-1,-1,0,251.111,237.189)">
        <path d="M126.848,107.461L160.452,107.461" style="fill:none;fill-rule:nonzero;stroke:rgb(97,97,97);stroke-opacity:0.22;stroke-width:0.38px;"/>
    </g>
    <g transform="matrix(0,-1,-1,0,168.592,103.496)">
        <path d="M-31.129,133.048L102.217,133.048" style="fill:none;fill-rule:nonzero;stroke:rgb(97,97,97);stroke-opacity:0.22;stroke-width:0.38px;"/>
    </g>
    <g transform="matrix(0,-1,-1,0,253.637,158.406)">
        <path d="M94.396,148.116L116.648,148.116" style="fill:none;fill-rule:nonzero;stroke:rgb(97,97,97);stroke-opacity:0.22;stroke-width:0.38px;"/>
    </g>
    <g transform="matrix(0,1,1,0,-2.09445,53.2711)">
        <path d="M67.877,74.912L77.757,74.912" style="fill:none;fill-rule:nonzero;stroke:rgb(97,97,97);stroke-opacity:0.22;stroke-width:0.38px;"/>
    </g>
    <g transform="matrix(0,-1,-1,0,230.422,218.674)">
        <path d="M104.704,106.374L143.392,106.374" style="fill:none;fill-rule:nonzero;stroke:rgb(97,97,97);stroke-opacity:0.22;stroke-width:0.38px;"/>
    </g>
    <g transform="matrix(0,-1,-1,0,247.536,239.29)">
        <path d="M121.738,104.623L164.088,104.623" style="fill:none;fill-rule:nonzero;stroke:rgb(97,97,97);stroke-opacity:0.22;stroke-width:0.38px;"/>
    </g>
    <g transform="matrix(0,-1,-1,0,248.851,182.589)">
        <path d="M103.198,133.632L127.243,133.632" style="fill:none;fill-rule:nonzero;stroke:rgb(97,97,97);stroke-opacity:0.22;stroke-width:0.38px;"/>
    </g>
    <g transform="matrix(0,-1,-1,0,251.339,149.857)">
        <path d="M65.718,151.241L134.478,151.241" style="fill:none;fill-rule:nonzero;stroke:rgb(97,97,97);stroke-opacity:0.22;stroke-width:0.38px;"/>
    </g>
    <g transform="matrix(0,-1,-1,0,216.685,219.501)">
        <path d="M108.217,99.092L126.969,99.092" style="fill:none;fill-rule:nonzero;stroke:rgb(97,97,97);stroke-opacity:0.22;stroke-width:0.38px;"/>
    </g>
    <g transform="matrix(0,-1,-1,0,220.082,225.712)">
        <path d="M117.369,97.685L127.425,97.685" style="fill:none;fill-rule:nonzero;stroke:rgb(97,97,97);stroke-opacity:0.22;stroke-width:0.38px;"/>
    </g>
    <g transform="matrix(0,-1,-1,0,248.619,233.993)">
        <path d="M131.022,107.813L150.59,107.813" style="fill:none;fill-rule:nonzero;stroke:rgb(97,97,97);stroke-opacity:0.22;stroke-width:0.38px;"/>
    </g>
    <g transform="matrix(0,-1,-1,0,229.596,303.746)">
        <path d="M164.085,63.425L168.257,63.425" style="fill:none;fill-rule:nonzero;stroke:rgb(97,97,97);stroke-opacity:0.22;stroke-width:0.38px;"/>
    </g>
    <g transform="matrix(0,-1,-1,0,222.82,139.084)">
        <path d="M34.386,142.368L126.518,142.368" style="fill:none;fill-rule:nonzero;stroke:rgb(97,97,97);stroke-opacity:0.22;stroke-width:0.38px;"/>
    </g>
    <g transform="matrix(0,-1,-1,0,192.951,288.363)">
        <path d="M138.566,52.794L141.748,52.794" style="fill:none;fill-rule:nonzero;stroke:rgb(97,97,97);stroke-opacity:0.22;stroke-width:0.38px;"/>
    </g>
    <g transform="matrix(0,-1,-1,0,180.279,191.264)">
        <path d="M63.945,95.007L106.598,95.007" style="fill:none;fill-rule:nonzero;stroke:rgb(97,97,97);stroke-opacity:0.22;stroke-width:0.38px;"/>
    </g>
    <g transform="matrix(1,0,0,1,0,5.774)">
        <path d="M144.166,97.613L151.285,97.613" style="fill:none;fill-rule:nonzero;stroke:rgb(97,97,97);stroke-opacity:0.16;stroke-width:0.54px;"/>
    </g>
    <g transform="matrix(1,0,0,1,0,-5.448)">
        <path d="M93.702,103.224L104.593,103.224" style="fill:none;fill-rule:nonzero;stroke:rgb(97,97,97);stroke-opacity:0.16;stroke-width:0.54px;"/>
    </g>
    <g transform="matrix(1,0,0,1,0,-5.448)">
        <path d="M98.079,103.224L108.676,103.224" style="fill:none;fill-rule:nonzero;stroke:rgb(97,97,97);stroke-opacity:0.16;stroke-width:0.54px;"/>
    </g>
    <g transform="matrix(1,0,0,1,0,-5.448)">
        <path d="M83.547,103.224L93.923,103.224" style="fill:none;fill-rule:nonzero;stroke:rgb(97,97,97);stroke-opacity:0.16;stroke-width:0.54px;"/>
    </g>
    <g transform="matrix(1,0,0,1,0,-5.448)">
        <path d="M81.572,103.224L92.346,103.224" style="fill:none;fill-rule:nonzero;stroke:rgb(97,97,97);stroke-opacity:0.16;stroke-width:0.54px;"/>
    </g>
    <g transform="matrix(1,0,0,1,0,-5.448)">
        <path d="M88.499,103.224L99.125,103.224" style="fill:none;fill-rule:nonzero;stroke:rgb(97,97,97);stroke-opacity:0.16;stroke-width:0.54px;"/>
    </g>
    <g transform="matrix(1,0,0,1,0,-5.448)">
        <path d="M86.067,103.224L96.605,103.224" style="fill:none;fill-rule:nonzero;stroke:rgb(97,97,97);stroke-opacity:0.16;stroke-width:0.54px;"/>
    </g>
    <g transform="matrix(1,0,0,1,0,-5.448)">
        <path d="M101.38,103.224L112.346,103.224" style="fill:none;fill-rule:nonzero;stroke:rgb(97,97,97);stroke-opacity:0.16;stroke-width:0.54px;"/>
    </g>
    <g transform="matrix(1,0,0,1,0,-5.448)">
        <path d="M84.004,103.224L94.542,103.224" style="fill:none;fill-rule:nonzero;stroke:rgb(97,97,97);stroke-opacity:0.16;stroke-width:0.54px;"/>
    </g>
    <g transform="matrix(1,0,0,1,0,-6.632)">
        <path d="M133.319,103.816L143.134,103.816" style="fill:none;fill-rule:nonzero;stroke:rgb(97,97,97);stroke-opacity:0.16;stroke-width:0.54px;"/>
    </g>
    <g transform="matrix(1,0,0,1,0,118.481)">
        <path d="M161.661,41.259L192.449,41.259" style="fill:none;fill-rule:nonzero;stroke:rgb(97,97,97);stroke-opacity:0.16;stroke-width:0.54px;"/>
    </g>
    <g transform="matrix(1,0,0,1,0,118.481)">
        <path d="M161.661,41.259L192.449,41.259" style="fill:none;fill-rule:nonzero;stroke:rgb(97,97,97);stroke-opacity:0.16;stroke-width:0.54px;"/>
    </g>
    <g transform="matrix(1,0,0,1,0,118.481)">
        <path d="M140.157,41.259L167.084,41.259" style="fill:none;fill-rule:nonzero;stroke:rgb(97,97,97);stroke-opacity:0.16;stroke-width:0.54px;"/>
    </g>
    <g transform="matrix(1,0,0,1,0,118.481)">
        <path d="M158.683,41.259L181.779,41.259" style="fill:none;fill-rule:nonzero;stroke:rgb(97,97,97);stroke-opacity:0.16;stroke-width:0.54px;"/>
    </g>
    <g transform="matrix(1,0,0,1,0,118.481)">
        <path d="M185.625,41.259L204.697,41.259" style="fill:none;fill-rule:nonzero;stroke:rgb(97,97,97);stroke-opacity:0.16;stroke-width:0.54px;"/>
    </g>
    <g transform="matrix(1,0,0,1,0,21.569)">
        <path d="M99.965,89.716L107.954,89.716" style="fill:none;fill-rule:nonzero;stroke:rgb(97,97,97);stroke-opacity:0.16;stroke-width:0.54px;"/>
    </g>
    <g transform="matrix(1,0,0,1,0,23.903)">
        <path d="M126.863,88.549L134.394,88.549" style="fill:none;fill-rule:nonzero;stroke:rgb(97,97,97);stroke-opacity:0.16;stroke-width:0.54px;"/>
    </g>
    <g transform="matrix(1,0,0,1,0,-57.406)">
        <path d="M69.31,129.203L83.547,129.203" style="fill:none;fill-rule:nonzero;stroke:rgb(97,97,97);stroke-opacity:0.16;stroke-width:0.54px;"/>
    </g>
    <g transform="matrix(1,0,0,1,0,46.5084)">
        <path d="M144.166,77.246L153.422,77.246" style="fill:none;fill-rule:nonzero;stroke:rgb(97,97,97);stroke-opacity:0.16;stroke-width:0.54px;"/>
    </g>
    <g transform="matrix(1,0,0,1,0,-32.082)">
        <path d="M128.868,116.541L137.165,116.541" style="fill:none;fill-rule:nonzero;stroke:rgb(97,97,97);stroke-opacity:0.16;stroke-width:0.54px;"/>
    </g>
    <g transform="matrix(1,0,0,1,0,52.2958)">
        <path d="M118.639,74.352L133.319,74.352" style="fill:none;fill-rule:nonzero;stroke:rgb(97,97,97);stroke-opacity:0.16;stroke-width:0.54px;"/>
    </g>
    <g transform="matrix(1,0,0,1,0,61.0566)">
        <path d="M155.058,69.972L165.168,69.972" style="fill:none;fill-rule:nonzero;stroke:rgb(97,97,97);stroke-opacity:0.16;stroke-width:0.54px;"/>
    </g>
    <g transform="matrix(1,0,0,1,0,38.1314)">
        <path d="M144.652,81.434L185.625,81.434" style="fill:none;fill-rule:nonzero;stroke:rgb(97,97,97);stroke-opacity:0.16;stroke-width:0.54px;"/>
    </g>
    <g transform="matrix(1,0,0,1,0,-23.354)">
        <path d="M112.346,112.177L122.884,112.177" style="fill:none;fill-rule:nonzero;stroke:rgb(97,97,97);stroke-opacity:0.16;stroke-width:0.54px;"/>
    </g>
    <g transform="matrix(1,0,0,1,0,27.1964)">
        <path d="M144.166,86.902L164.107,86.902" style="fill:none;fill-rule:nonzero;stroke:rgb(97,97,97);stroke-opacity:0.16;stroke-width:0.54px;"/>
    </g>
    <g transform="matrix(1,0,0,1,0,26.2692)">
        <path d="M171.58,87.365L179.052,87.365" style="fill:none;fill-rule:nonzero;stroke:rgb(97,97,97);stroke-opacity:0.16;stroke-width:0.54px;"/>
    </g>
    <g transform="matrix(1,0,0,1,0,26.2692)">
        <path d="M169,87.365L172.213,87.365" style="fill:none;fill-rule:nonzero;stroke:rgb(97,97,97);stroke-opacity:0.16;stroke-width:0.54px;"/>
    </g>
    <g transform="matrix(1,0,0,1,0,3.7916)">
        <path d="M138.742,98.604L149.074,98.604" style="fill:none;fill-rule:nonzero;stroke:rgb(97,97,97);stroke-opacity:0.16;stroke-width:0.54px;"/>
    </g>
    <g transform="matrix(1,0,0,1,0,-35.472)">
        <path d="M0.923,118.236L51.314,118.236" style="fill:none;fill-rule:nonzero;stroke:rgb(97,97,97);stroke-opacity:0.16;stroke-width:0.54px;"/>
    </g>
    <g transform="matrix(1,0,0,1,0,-90.308)">
        <path d="M99.685,145.654L111.24,145.654" style="fill:none;fill-rule:nonzero;stroke:rgb(97,97,97);stroke-opacity:0.16;stroke-width:0.54px;"/>
    </g>
    <g transform="matrix(1,0,0,1,0,45.3574)">
        <path d="M58.344,77.821L83.075,77.821" style="fill:none;fill-rule:nonzero;stroke:rgb(97,97,97);stroke-opacity:0.16;stroke-width:0.54px;"/>
    </g>
    <g transform="matrix(1,0,0,1,0,-4.106)">
        <path d="M120.201,102.553L127.895,102.553" style="fill:none;fill-rule:nonzero;stroke:rgb(97,97,97);stroke-opacity:0.16;stroke-width:0.54px;"/>
    </g>
    <g transform="matrix(1,0,0,1,0,-2.572)">
        <path d="M133.658,101.786L155.161,101.786" style="fill:none;fill-rule:nonzero;stroke:rgb(97,97,97);stroke-opacity:0.16;stroke-width:0.54px;"/>
    </g>
    <g transform="matrix(1,0,0,1,0,-65.304)">
        <path d="M110.636,133.152L120.201,133.152" style="fill:none;fill-rule:nonzero;stroke:rgb(97,97,97);stroke-opacity:0.16;stroke-width:0.54px;"/>
    </g>
    <g transform="matrix(1,0,0,1,0,-70.58)">
        <path d="M92.346,135.79L106.377,135.79" style="fill:none;fill-rule:nonzero;stroke:rgb(97,97,97);stroke-opacity:0.16;stroke-width:0.54px;"/>
    </g>
    <g transform="matrix(1,0,0,1,0,1.8412)">
        <path d="M112.346,99.579L123.134,99.579" style="fill:none;fill-rule:nonzero;stroke:rgb(97,97,97);stroke-opacity:0.16;stroke-width:0.54px;"/>
    </g>
    <g transform="matrix(1,0,0,1,0,9.8666)">
        <path d="M116.841,95.567L127.895,95.567" style="fill:none;fill-rule:nonzero;stroke:rgb(97,97,97);stroke-opacity:0.16;stroke-width:0.54px;"/>
    </g>
    <g transform="matrix(1,0,0,1,0,-13.538)">
        <path d="M135.382,107.269L146.008,107.269" style="fill:none;fill-rule:nonzero;stroke:rgb(97,97,97);stroke-opacity:0.16;stroke-width:0.54px;"/>
    </g>
    <g transform="matrix(1,0,0,1,0,72.3432)">
        <path d="M161.661,64.328L170.931,64.328" style="fill:none;fill-rule:nonzero;stroke:rgb(97,97,97);stroke-opacity:0.16;stroke-width:0.54px;"/>
    </g>
    <g transform="matrix(1,0,0,1,0,-80.364)">
        <path d="M77.18,140.682L84.004,140.682" style="fill:none;fill-rule:nonzero;stroke:rgb(97,97,97);stroke-opacity:0.16;stroke-width:0.54px;"/>
    </g>
    <g transform="matrix(1,0,0,1,0,95.3324)">
        <path d="M132.154,52.834L152.405,52.834" style="fill:none;fill-rule:nonzero;stroke:rgb(97,97,97);stroke-opacity:0.16;stroke-width:0.54px;"/>
    </g>
    <g transform="matrix(1,0,0,1,0,31.0972)">
        <path d="M54.497,84.951L116.06,84.951" style="fill:none;fill-rule:nonzero;stroke:rgb(97,97,97);stroke-opacity:0.16;stroke-width:0.54px;"/>
    </g>
    <g transform="matrix(1,0,0,1,0,-44.0735)">
        <path d="M7.747,76.35L9.678,77.885L11.594,79.404L15.455,82.378L17.371,83.848L19.302,85.287L21.218,86.726L25.079,89.54L26.995,90.931L28.926,92.305L30.842,93.648L32.773,94.991L34.704,96.318L36.62,97.629L38.55,98.924L40.466,100.203L42.397,101.482L44.328,102.729L46.244,103.976L48.175,105.191L50.091,106.406L52.021,107.605L53.952,108.788L55.868,109.971L57.799,111.122L59.715,112.273L61.646,113.408L63.576,114.527L65.492,115.63L67.423,116.733L69.339,117.82L71.27,118.891L73.2,119.947L75.116,121.002L77.047,122.041L78.963,123.064L82.825,125.078L84.741,126.07L86.671,127.045L88.587,128.02L90.518,128.979L92.449,129.922L94.365,130.866L96.296,131.793L98.212,132.704L100.142,133.615L102.073,134.511L103.989,135.406L105.92,136.285L107.836,137.148L109.767,138.012L111.697,138.859L113.613,139.69L115.544,140.522L117.46,141.353L119.391,142.152L121.321,142.968L123.237,143.751L125.168,144.534L127.084,145.318L129.015,146.086L130.946,146.837L132.862,147.588L134.792,148.34L136.708,149.075L140.57,150.514L142.486,151.217L144.417,151.921L146.333,152.624L148.263,153.312L150.194,153.983L152.11,154.655L154.041,155.326L155.957,155.981L157.888,156.621L159.818,157.276L161.734,157.9L163.665,158.539L165.581,159.163L169.442,160.378L171.358,160.985L173.289,161.577L175.205,162.152L177.136,162.744L179.067,163.319L180.983,163.879L182.913,164.438L184.829,164.998L186.76,165.558L188.691,166.101L190.607,166.629L192.538,167.156L194.454,167.684L196.384,168.211L198.315,168.723" style="fill:none;fill-rule:nonzero;stroke:rgb(211,47,47);stroke-opacity:0.88;stroke-width:0.85px;"/>
    </g>
    <g transform="matrix(1,0,0,1,0,200.6)">
        <path d="M0,0.2L203.391,0.2" style="fill:none;fill-rule:nonzero;stroke:rgb(101,109,118);stroke-width:1.14px;stroke-linecap:square;"/>
    </g>
    <g transform="matrix(1,0,0,1,0,192.985)">
        <rect x="0" y="0.2" width="5.763" height="7.615" style="fill:rgb(3,2,11);fill-opacity:0.95;"/>
    </g>
    <g transform="matrix(1,0,0,1,0,198.569)">
        <rect x="6.352" y="0.2" width="5.763" height="2.031" style="fill:rgb(9,5,24);fill-opacity:0.95;"/>
    </g>
    <g transform="matrix(1,0,0,1,0,198.569)">
        <rect x="12.705" y="0.2" width="5.763" height="2.031" style="fill:rgb(15,8,37);fill-opacity:0.95;"/>
    </g>
    <g transform="matrix(1,0,0,1,0,198.569)">
        <rect x="19.072" y="0.2" width="5.763" height="2.031" style="fill:rgb(20,12,51);fill-opacity:0.95;"/>
    </g>
    <g transform="matrix(1,0,0,1,0,198.569)">
        <rect x="25.424" y="0.2" width="5.763" height="2.031" style="fill:rgb(26,15,64);fill-opacity:0.95;"/>
    </g>
    <g transform="matrix(1,0,0,1,0,192.985)">
        <rect x="31.776" y="0.2" width="5.763" height="7.615" style="fill:rgb(34,16,74);fill-opacity:0.95;"/>
    </g>
    <g transform="matrix(1,0,0,1,0,198.569)">
        <rect x="38.128" y="0.2" width="5.763" height="2.031" style="fill:rgb(42,17,83);fill-opacity:0.95;"/>
    </g>
    <g transform="matrix(1,0,0,1,0,192.985)">
        <rect x="44.495" y="0.2" width="5.763" height="7.615" style="fill:rgb(50,17,91);fill-opacity:0.95;"/>
    </g>
    <g transform="matrix(1,0,0,1,0,185.37)">
        <rect x="50.848" y="0.2" width="5.763" height="15.23" style="fill:rgb(57,17,100);fill-opacity:0.95;"/>
    </g>
    <g transform="matrix(1,0,0,1,0,192.985)">
        <rect x="57.2" y="0.2" width="5.763" height="7.615" style="fill:rgb(65,17,108);fill-opacity:0.95;"/>
    </g>
    <g transform="matrix(1,0,0,1,0,192.985)">
        <rect x="63.552" y="0.2" width="5.763" height="7.615" style="fill:rgb(73,18,117);fill-opacity:0.95;"/>
    </g>
    <g transform="matrix(1,0,0,1,0,198.569)">
        <rect x="69.919" y="0.2" width="5.763" height="2.031" style="fill:rgb(81,19,123);fill-opacity:0.95;"/>
    </g>
    <g transform="matrix(1,0,0,1,0,192.985)">
        <rect x="76.272" y="0.2" width="5.763" height="7.615" style="fill:rgb(89,22,124);fill-opacity:0.95;"/>
    </g>
    <g transform="matrix(1,0,0,1,0,198.569)">
        <rect x="82.624" y="0.2" width="5.763" height="2.031" style="fill:rgb(97,25,125);fill-opacity:0.95;"/>
    </g>
    <g transform="matrix(1,0,0,1,0,192.985)">
        <rect x="88.976" y="0.2" width="5.763" height="7.615" style="fill:rgb(105,28,126);fill-opacity:0.95;"/>
    </g>
    <g transform="matrix(1,0,0,1,0,192.985)">
        <rect x="95.343" y="0.2" width="5.763" height="7.615" style="fill:rgb(113,31,127);fill-opacity:0.95;"/>
    </g>
    <g transform="matrix(1,0,0,1,0,185.37)">
        <rect x="101.695" y="0.2" width="5.763" height="15.23" style="fill:rgb(120,34,128);fill-opacity:0.95;"/>
    </g>
    <g transform="matrix(1,0,0,1,0,185.37)">
        <rect x="108.048" y="0.2" width="5.763" height="15.23" style="fill:rgb(128,37,129);fill-opacity:0.95;"/>
    </g>
    <g transform="matrix(1,0,0,1,0,177.756)">
        <rect x="114.4" y="0.2" width="5.763" height="22.844" style="fill:rgb(138,40,128);fill-opacity:0.95;"/>
    </g>
    <g transform="matrix(1,0,0,1,0,177.756)">
        <rect x="120.767" y="0.2" width="5.763" height="22.844" style="fill:rgb(147,43,127);fill-opacity:0.95;"/>
    </g>
    <g transform="matrix(1,0,0,1,0,177.756)">
        <rect x="127.119" y="0.2" width="5.763" height="22.844" style="fill:rgb(157,46,125);fill-opacity:0.95;"/>
    </g>
    <g transform="matrix(1,0,0,1,0,170.141)">
        <rect x="133.471" y="0.2" width="5.763" height="30.459" style="fill:rgb(166,49,124);fill-opacity:0.95;"/>
    </g>
    <g transform="matrix(1,0,0,1,0,185.37)">
        <rect x="139.824" y="0.2" width="5.763" height="15.23" style="fill:rgb(176,52,123);fill-opacity:0.95;"/>
    </g>
    <g transform="matrix(1,0,0,1,0,192.985)">
        <rect x="146.191" y="0.2" width="5.763" height="7.615" style="fill:rgb(186,57,120);fill-opacity:0.95;"/>
    </g>
    <g transform="matrix(1,0,0,1,0,192.985)">
        <rect x="152.543" y="0.2" width="5.763" height="7.615" style="fill:rgb(197,62,115);fill-opacity:0.95;"/>
    </g>
    <g transform="matrix(1,0,0,1,0,177.756)">
        <rect x="158.895" y="0.2" width="5.763" height="22.844" style="fill:rgb(207,68,110);fill-opacity:0.95;"/>
    </g>
    <g transform="matrix(1,0,0,1,0,185.37)">
        <rect x="165.247" y="0.2" width="5.763" height="15.23" style="fill:rgb(218,74,105);fill-opacity:0.95;"/>
    </g>
    <g transform="matrix(1,0,0,1,0,198.569)">
        <rect x="171.614" y="0.2" width="5.763" height="2.031" style="fill:rgb(229,80,100);fill-opacity:0.95;"/>
    </g>
    <g transform="matrix(1,0,0,1,0,192.985)">
        <rect x="177.967" y="0.2" width="5.763" height="7.615" style="fill:rgb(234,118,120);fill-opacity:0.95;"/>
    </g>
    <g transform="matrix(1,0,0,1,0,192.985)">
        <rect x="184.319" y="0.2" width="5.763" height="7.615" style="fill:rgb(239,156,140);fill-opacity:0.95;"/>
    </g>
    <g transform="matrix(1,0,0,1,0,185.37)">
        <rect x="190.671" y="0.2" width="5.763" height="15.23" style="fill:rgb(244,195,161);fill-opacity:0.95;"/>
    </g>
    <g transform="matrix(1,0,0,1,0,185.37)">
        <rect x="197.038" y="0.2" width="5.763" height="15.23" style="fill:rgb(249,234,181);fill-opacity:0.95;"/>
    </g>
</svg>
